<?xml version="1.0" standalone="no"?>
<!DOCTYPE svg PUBLIC "-//W3C//DTD SVG 20010904//EN"
 "http://www.w3.org/TR/2001/REC-SVG-20010904/DTD/svg10.dtd">
<svg version="1.0" xmlns="http://www.w3.org/2000/svg"
 width="1305.868299pt" height="856.198527pt" viewBox="0 0 1305.868299 856.198527"
 preserveAspectRatio="xMidYMid meet">
<metadata>
Created by potrace 1.16, written by Peter Selinger 2001-2019
</metadata>
<g transform="translate(-193.000000,856.000000) scale(0.100000,-0.100000)"
fill="#000000" stroke="none">
<path d="M12008 8507 l53 -54 105 -304 105 -304 -51 -111 -52 -112 8 -126 c5
-101 2 -167 -16 -333 -13 -115 -24 -209 -26 -211 -1 -2 -179 16 -396 39 l-393
43 -470 -36 -470 -35 -615 27 c-679 29 -579 31 -1200 -25 -151 -14 -409 -37
-573 -50 -275 -23 -328 -30 -656 -95 -354 -69 -358 -70 -586 -156 -208 -77
-262 -93 -557 -159 l-327 -74 -88 -55 c-48 -29 -130 -76 -180 -103 l-93 -49
-147 17 -148 18 -190 -55 c-155 -44 -203 -54 -265 -54 l-75 0 -66 93 c-57 80
-72 110 -110 225 l-44 133 -195 160 -194 159 -123 316 c-107 278 -136 340
-240 527 -65 116 -127 221 -138 234 -16 18 -364 267 -456 327 -25 16 -37 15
-240 -10 l-214 -27 -173 -68 -172 -69 -126 0 -127 0 -72 40 c-40 22 -75 40
-79 40 -3 0 -6 -10 -6 -22 0 -18 17 -32 79 -65 l79 -43 124 0 124 0 174 71
175 71 208 27 208 28 234 -165 233 -165 122 -218 c108 -193 134 -252 244 -536
l123 -318 144 -118 c270 -222 242 -189 290 -337 38 -114 52 -141 114 -227 l71
-98 102 -3 c96 -3 109 0 279 49 l178 52 153 -17 154 -17 96 52 c53 29 136 76
185 106 78 47 106 58 219 84 72 16 136 29 144 29 11 0 14 -24 14 -118 l0 -118
-56 -14 c-45 -12 -104 -51 -330 -215 -206 -149 -270 -201 -257 -206 10 -3 83
-9 163 -13 110 -5 191 -16 335 -46 105 -21 258 -46 340 -55 l150 -16 114 25
c95 22 139 26 268 26 l155 0 -44 -79 c-29 -53 -83 -123 -164 -213 -67 -73
-158 -176 -202 -228 l-80 -95 -111 -44 c-61 -25 -111 -47 -111 -51 0 -3 47
-62 104 -130 l104 -124 131 -61 c116 -54 145 -73 251 -164 66 -57 120 -106
120 -110 0 -13 -124 -115 -200 -165 -45 -29 -100 -79 -138 -122 l-63 -73 65
-30 c36 -16 74 -32 86 -36 11 -3 79 -57 151 -119 l131 -112 392 -18 c215 -9
486 -21 601 -26 116 -5 449 -10 740 -10 l530 0 166 30 c146 26 379 77 386 84
1 1 -8 35 -20 76 l-23 74 -94 68 -94 68 -173 0 c-153 0 -187 -3 -310 -30 -76
-16 -196 -48 -268 -71 l-130 -41 -234 7 -234 7 -101 35 c-55 20 -103 38 -105
39 -12 10 61 50 179 97 l135 54 205 7 c113 3 293 11 400 17 l195 10 100 44
c96 43 108 46 284 65 101 10 185 21 186 22 2 2 -61 53 -139 115 l-141 111
-270 102 c-149 56 -468 171 -710 255 -422 147 -461 159 -940 279 -275 68 -543
135 -595 147 -52 12 -98 23 -103 26 -4 2 18 32 48 66 31 34 70 86 86 114 28
49 33 53 68 53 20 0 42 -5 47 -10 8 -8 26 -5 60 8 27 11 110 29 185 42 l136
23 94 -31 c52 -18 168 -49 259 -71 204 -48 138 -45 1621 -80 l1136 -27 54 -36
54 -36 265 -33 265 -33 85 -81 85 -81 120 -23 c66 -12 192 -33 280 -46 117
-17 182 -32 243 -56 45 -17 82 -35 82 -38 0 -3 -21 -18 -46 -34 -41 -25 -54
-27 -143 -27 l-99 0 -84 -69 c-82 -68 -87 -70 -174 -86 -49 -10 -163 -20 -254
-24 l-165 -8 -128 -61 -127 -62 50 -100 51 -101 106 -68 106 -69 94 75 c89 72
107 81 381 198 158 67 404 177 547 244 233 109 296 134 610 236 l351 115 257
0 c257 0 258 0 478 -40 122 -22 225 -40 230 -40 5 0 25 -25 45 -55 36 -54 37
-54 146 -91 l110 -36 216 26 c120 15 222 29 229 31 7 2 -6 47 -37 130 -46 119
-93 200 -222 379 -20 28 -84 75 -216 159 -163 105 -218 134 -424 222 l-237
103 -161 136 c-88 75 -170 141 -183 146 -12 5 -197 59 -412 119 l-390 110
-560 10 c-308 6 -742 18 -965 27 l-405 16 -600 -36 c-596 -36 -603 -36 -985
-26 -333 9 -449 7 -860 -10 -290 -12 -642 -20 -905 -20 l-430 0 -370 -100
c-203 -55 -373 -100 -377 -100 -5 0 -8 53 -8 118 l0 117 153 33 c109 24 220
59 391 123 239 88 240 89 597 159 321 63 385 72 616 90 142 11 346 29 453 39
107 11 319 30 470 42 l275 23 616 -27 616 -26 459 35 459 35 410 -45 c225 -24
412 -43 414 -40 3 2 17 111 32 242 24 206 26 251 18 348 l-10 111 55 117 55
116 -108 314 c-95 279 -112 320 -147 359 -31 36 -46 45 -74 46 l-34 1 52 -53z
m-723 -2046 c270 -11 695 -23 945 -26 l455 -7 406 -115 405 -114 167 -141 168
-141 230 -98 c199 -84 256 -114 416 -216 200 -127 192 -119 322 -310 56 -83
151 -293 133 -293 -4 0 -92 -11 -195 -24 l-189 -24 -96 32 c-94 32 -98 34
-135 87 l-38 56 -267 47 -267 47 -230 -1 -230 0 -355 -115 c-324 -106 -379
-127 -630 -244 -151 -71 -403 -183 -560 -250 -260 -110 -292 -127 -367 -187
l-83 -66 -86 54 c-82 51 -87 56 -125 131 l-39 77 116 55 117 55 131 0 c84 0
171 7 243 19 l112 20 88 70 88 71 97 0 96 0 86 52 c47 29 85 56 86 59 0 3 -60
29 -132 56 -107 41 -157 54 -258 67 -69 9 -188 29 -265 43 l-140 26 -85 81
-85 82 -270 34 -270 33 -55 37 -55 37 -1175 27 c-646 16 -1236 32 -1310 36
-149 9 -341 50 -529 114 l-105 36 -145 -25 c-80 -14 -170 -34 -198 -45 -29
-11 -53 -15 -53 -10 0 6 -14 10 -31 10 l-31 0 21 34 c12 18 21 38 21 45 0 8
-52 11 -177 11 -158 -1 -193 -4 -307 -29 l-128 -28 -157 18 c-86 9 -221 32
-301 49 -80 17 -208 37 -285 43 l-140 12 230 166 230 166 451 121 451 122 464
0 c277 1 635 8 889 19 352 15 498 17 850 9 420 -8 431 -8 955 26 292 18 550
34 575 35 25 0 266 -8 535 -18z m-3790 -1260 c594 -148 605 -151 1030 -299
237 -83 557 -198 713 -256 l283 -106 101 -80 c56 -44 98 -80 94 -80 -4 0 -69
-7 -146 -15 -126 -14 -147 -20 -232 -59 l-93 -43 -220 -11 c-121 -7 -303 -14
-405 -18 l-185 -7 -135 -53 c-95 -38 -152 -68 -193 -100 -32 -26 -55 -50 -50
-54 4 -4 69 -28 143 -53 l135 -47 240 -9 240 -9 140 44 c257 80 339 94 547 94
l183 0 82 -56 c74 -51 82 -60 92 -101 7 -25 11 -47 9 -48 -7 -6 -244 -57 -374
-80 -139 -24 -153 -25 -625 -25 -266 0 -637 7 -824 15 -187 8 -457 19 -600 25
-143 6 -273 13 -290 16 -20 3 -69 39 -145 105 -75 66 -137 110 -179 130 -36
16 -67 32 -69 34 -12 12 79 102 157 155 93 63 226 175 226 191 0 5 -64 64
-142 132 -131 112 -153 127 -270 181 l-128 59 -80 95 c-44 52 -81 98 -83 102
-1 4 39 24 90 44 91 37 95 40 168 128 97 117 180 208 188 208 4 0 277 -67 607
-149z"/>
<path d="M3097 7374 c-8 -8 1 -24 14 -24 5 0 9 7 9 15 0 15 -12 20 -23 9z"/>
<path d="M3555 7370 c-4 -6 -3 -30 1 -53 5 -34 8 -38 15 -22 17 44 4 107 -16
75z"/>
<path d="M2448 7363 c8 -3 12 -33 12 -98 0 -65 -4 -95 -12 -98 -7 -3 5 -5 27
-5 22 0 32 2 23 5 -15 4 -18 16 -17 81 l0 77 41 -85 40 -85 38 80 38 80 1 -72
c1 -48 -3 -73 -11 -76 -7 -3 7 -5 32 -5 25 0 39 2 33 5 -9 3 -13 33 -13 98 0
65 4 95 13 98 6 3 -2 6 -19 6 -30 1 -33 -3 -64 -74 -18 -41 -36 -75 -40 -75
-3 0 -21 34 -39 75 -31 71 -35 75 -65 74 -17 0 -25 -3 -18 -6z"/>
<path d="M2745 7285 c-45 -44 -23 -125 34 -125 26 0 70 34 59 45 -3 3 -11 -1
-18 -10 -17 -20 -33 -19 -53 3 -31 35 -22 52 28 52 51 0 60 18 23 44 -31 22
-45 20 -73 -9z m59 -10 c4 -11 -2 -15 -24 -15 -29 0 -38 9 -23 23 12 12 41 7
47 -8z"/>
<path d="M2870 7298 c-18 -7 -21 -11 -11 -17 9 -6 12 -26 10 -65 l-4 -56 34 0
c32 0 33 1 16 13 -14 11 -17 23 -13 58 7 62 -1 79 -32 67z"/>
<path d="M2920 7295 c-10 -12 -9 -15 6 -16 11 -1 27 -1 37 0 14 2 17 -6 17
-53 0 -34 -5 -56 -12 -59 -7 -3 5 -6 27 -6 25 0 35 2 27 8 -9 5 -12 25 -10 57
3 42 6 49 26 52 12 2 22 7 22 11 0 16 -13 20 -31 10 -13 -6 -19 -6 -19 0 0 7
-9 7 -25 1 -15 -6 -26 -6 -30 0 -9 14 -21 12 -35 -5z"/>
<path d="M3090 7298 c-18 -7 -21 -11 -11 -17 9 -6 12 -26 10 -65 l-4 -56 30 0
c18 0 25 3 18 8 -7 4 -13 36 -15 73 -3 66 -3 66 -28 57z"/>
<path d="M3188 7299 c-10 -5 -18 -17 -18 -24 0 -21 13 -18 28 6 11 16 16 18
28 9 18 -16 18 -40 0 -40 -25 0 -67 -41 -64 -64 3 -24 41 -34 64 -16 11 10 14
10 14 1 0 -17 42 -9 48 8 3 8 0 11 -7 7 -8 -5 -11 8 -11 43 0 70 -34 99 -82
70z m50 -86 c-4 -35 -48 -48 -48 -14 0 18 23 40 43 41 5 0 7 -12 5 -27z"/>
<path d="M3318 7302 c-20 -4 -24 -17 -8 -27 14 -9 12 -89 -2 -103 -9 -9 -4
-12 22 -12 26 0 31 3 22 12 -7 7 -12 31 -12 55 0 32 5 45 20 53 11 6 25 8 30
5 15 -9 13 -112 -2 -118 -7 -3 5 -5 27 -5 22 0 34 2 28 5 -8 3 -13 24 -13 53
0 38 4 52 18 59 13 7 23 6 30 -1 16 -16 15 -91 0 -106 -9 -9 -5 -12 20 -12 29
0 32 2 22 19 -5 11 -10 40 -10 64 0 60 -20 78 -61 55 -16 -10 -29 -13 -29 -9
0 17 -33 21 -56 6 -17 -11 -23 -12 -26 -2 -2 7 -11 11 -20 9z"/>
<path d="M3628 7299 c-28 -16 -21 -46 17 -75 19 -14 35 -33 35 -40 0 -22 -37
-16 -54 8 l-16 22 0 -27 c0 -25 3 -27 39 -27 71 0 79 47 16 88 -38 24 -43 37
-20 46 8 3 24 -4 35 -16 l20 -22 0 25 c0 19 -6 24 -28 26 -15 1 -35 -3 -44 -8z"/>
<path d="M1930 7101 c0 -21 23 -56 88 -136 78 -96 101 -117 232 -207 203 -141
396 -234 778 -377 174 -66 364 -137 420 -159 l104 -39 44 -71 c51 -81 20 -69
289 -103 94 -11 173 -23 176 -27 3 -4 23 -48 43 -98 l38 -91 -52 -164 c-41
-130 -71 -199 -140 -332 l-89 -167 18 -133 17 -134 -43 -139 c-91 -293 -113
-481 -163 -1424 -20 -370 -21 -708 -1 -822 5 -34 31 -59 301 -290 l295 -253
17 -123 18 -123 -71 -106 -71 -105 54 -277 54 -276 1009 -252 c556 -139 1029
-252 1052 -253 40 0 52 9 300 218 142 120 264 221 271 226 7 4 108 34 225 67
l211 59 338 0 337 0 66 87 c36 47 64 87 62 89 -1 1 -173 44 -383 94 l-380 91
-235 122 -234 122 -230 45 -230 46 -185 237 c-179 230 -189 241 -320 346 -128
102 -145 112 -323 192 -170 76 -198 93 -310 180 l-122 96 -122 409 c-147 491
-130 424 -193 784 -47 268 -58 315 -122 509 l-71 214 18 193 17 192 -52 159
-52 158 60 160 c54 143 58 161 44 173 -9 6 -19 9 -23 5 -4 -5 -34 -83 -67
-174 l-61 -167 54 -161 54 -162 -18 -192 -18 -192 69 -205 c63 -188 74 -232
128 -535 34 -190 75 -387 98 -465 74 -256 214 -718 221 -727 3 -5 60 -52 126
-104 110 -87 138 -104 315 -185 183 -83 203 -95 327 -194 127 -102 137 -113
317 -345 l185 -240 228 -43 228 -44 243 -125 243 -125 332 -79 c183 -44 340
-82 350 -85 16 -5 16 -7 0 -35 -9 -16 -28 -40 -40 -54 l-24 -25 -334 0 -334 0
-217 -61 c-215 -61 -217 -61 -280 -114 l-62 -53 -94 4 c-51 2 -367 8 -703 14
-335 5 -699 13 -807 16 l-198 7 0 -22 c0 -17 -5 -21 -17 -17 -10 3 -154 39
-321 79 -166 41 -304 76 -306 78 -1 2 -25 117 -53 255 l-49 250 69 104 70 104
-18 142 -18 142 -288 247 c-158 136 -293 253 -299 260 -6 8 -15 96 -20 212 -8
161 -6 270 10 583 51 969 71 1145 165 1448 l46 146 -17 136 -17 135 83 155
c66 123 95 192 141 334 l58 179 -35 86 c-19 46 -34 87 -34 90 0 3 46 6 103 6
l102 0 63 -47 c45 -33 98 -58 185 -89 67 -23 158 -55 202 -71 l80 -28 93 -144
93 -143 -16 -94 c-8 -52 -26 -213 -40 -359 -13 -146 -27 -284 -30 -306 l-6
-41 183 -81 c127 -55 236 -94 356 -128 l174 -48 63 34 c35 19 172 119 305 222
132 104 249 188 260 188 25 0 25 -12 1 -88 -15 -49 -37 -82 -111 -169 -50 -59
-94 -113 -97 -119 -2 -7 16 -52 40 -100 28 -57 54 -131 73 -206 l28 -118 113
0 c62 0 113 -3 113 -7 0 -4 -12 -44 -27 -90 -30 -92 -31 -82 22 -258 l25 -81
487 -53 488 -53 280 -105 280 -106 361 -36 361 -37 334 73 334 73 279 0 279 0
506 201 505 201 251 49 c137 27 259 54 271 58 11 5 138 115 280 244 l260 234
226 122 226 122 644 62 643 62 119 78 119 77 145 0 c144 0 145 0 316 -50 113
-33 202 -53 260 -58 l89 -7 -46 -56 c-40 -49 -44 -59 -32 -69 18 -15 37 -1 92
72 31 40 42 48 70 48 26 0 33 4 33 19 0 11 -6 21 -12 23 -9 3 -3 17 17 42 51
65 51 64 34 81 -14 14 -20 9 -68 -51 l-54 -67 -95 7 c-71 5 -144 21 -286 61
-190 55 -191 55 -329 55 l-138 0 -127 -82 -126 -82 -642 -61 -643 -62 -233
-126 -233 -127 -200 -181 c-110 -99 -227 -205 -261 -235 l-61 -53 -264 -55
-265 -55 -505 -200 -506 -201 -279 0 -279 0 -327 -71 -328 -71 -347 35 -348
35 -281 105 -282 106 -478 53 -478 53 -33 105 -33 104 39 118 39 117 -130 3
-131 3 -27 100 c-14 55 -43 133 -64 173 -20 41 -36 78 -34 82 2 5 43 57 92
115 81 97 90 112 117 198 16 50 29 98 29 105 0 8 -19 12 -62 12 l-63 -1 -105
-83 c-59 -48 -106 -79 -108 -71 -3 14 -80 18 -644 36 l-378 13 0 26 c0 51 30
346 52 506 l22 161 -100 155 -99 155 -205 72 c-193 67 -286 112 -274 132 3 5
32 9 66 9 44 0 100 -12 206 -46 l146 -46 145 6 c117 6 176 14 296 43 l150 36
75 -16 c41 -8 76 -15 77 -14 0 1 3 11 5 21 3 17 -8 22 -77 37 l-80 18 -140
-35 c-105 -27 -176 -38 -287 -45 l-147 -10 -144 46 c-159 50 -192 53 -395 35
-90 -8 -133 -7 -205 4 -51 9 -166 24 -256 35 -91 11 -168 24 -173 29 -5 5 -28
37 -51 72 -38 58 -48 65 -107 87 -888 333 -990 378 -1232 545 -124 86 -146
106 -238 217 -55 66 -102 121 -105 121 -3 0 -5 -13 -5 -29z m3600 -2386 c245
-9 454 -16 465 -18 17 -2 16 -5 -12 -25 l-32 -22 -443 10 c-291 7 -444 7 -446
0 -2 -6 -16 -3 -33 5 -20 11 -29 23 -29 40 0 30 -49 30 530 10z m118 -101
c221 -5 251 -8 233 -20 -17 -12 -73 -13 -366 -4 -296 8 -385 16 -385 33 0 2
182 -1 518 -9z m10 -71 c170 -7 169 -6 52 -71 l-55 -30 -169 49 c-94 27 -175
51 -180 53 -17 7 186 7 352 -1z m197 -3763 c363 -6 706 -13 762 -16 l102 -6
-57 -48 -58 -48 -669 34 c-653 34 -673 35 -802 65 -73 17 -133 33 -133 35 0 3
44 2 98 -1 53 -3 394 -10 757 -15z m173 -129 c281 -15 514 -30 517 -32 2 -3
-39 -41 -92 -85 l-96 -81 -221 56 -221 56 268 3 c259 2 267 3 267 22 0 19 -7
20 -290 20 -251 0 -290 -2 -290 -15 0 -8 -6 -15 -12 -15 -28 1 -391 98 -368
99 14 0 256 -12 538 -28z"/>
<path d="M2585 6993 c-30 -7 -63 -42 -75 -79 -15 -43 2 -98 35 -120 43 -28
117 -18 136 18 12 21 11 21 -16 0 -34 -27 -65 -28 -96 -3 -20 16 -24 29 -24
74 0 40 5 61 19 76 27 30 71 27 101 -5 l25 -27 0 31 c0 23 -4 30 -17 30 -10
-1 -29 1 -43 4 -14 3 -34 3 -45 1z"/>
<path d="M2720 6990 c-10 -6 -11 -10 -2 -10 9 0 12 -26 12 -94 0 -66 -4 -96
-12 -99 -7 -3 5 -5 27 -5 22 0 34 2 28 5 -8 3 -13 24 -13 53 0 38 4 52 19 59
10 6 21 7 25 4 12 -12 6 -111 -6 -116 -7 -3 5 -5 27 -5 22 0 34 2 28 5 -8 3
-13 26 -13 63 0 69 -16 90 -55 72 -25 -11 -25 -11 -25 33 0 46 -10 55 -40 35z"/>
<path d="M3260 6990 c-10 -6 -11 -10 -2 -10 9 0 12 -26 12 -94 0 -102 2 -106
60 -106 32 0 70 39 70 72 0 48 -45 87 -80 68 -19 -10 -20 -8 -20 35 0 46 -10
55 -40 35z m102 -115 c17 -38 0 -80 -32 -80 -22 0 -25 5 -28 39 -2 21 -1 44 2
52 9 23 45 16 58 -11z"/>
<path d="M2898 6919 c-19 -11 -25 -39 -8 -39 5 0 14 9 20 20 12 23 40 16 40
-10 0 -11 -12 -22 -29 -28 -36 -13 -57 -47 -41 -67 12 -14 102 -16 116 -2 4 4
2 7 -4 7 -8 0 -12 20 -12 55 0 43 -4 56 -19 65 -24 12 -41 12 -63 -1z m50 -86
c-3 -32 -35 -44 -45 -17 -4 11 1 22 12 30 28 21 37 17 33 -13z"/>
<path d="M3024 6915 c-10 -8 -14 -15 -6 -15 8 0 12 -18 12 -54 0 -34 -5 -56
-12 -59 -7 -3 5 -5 27 -5 22 0 34 2 28 5 -20 8 -17 109 3 117 9 3 20 4 25 0
14 -8 11 -111 -3 -117 -7 -3 5 -5 27 -5 22 0 34 2 28 5 -21 8 -17 100 5 111
31 17 42 3 42 -53 0 -33 -5 -55 -12 -58 -7 -3 5 -5 27 -5 22 0 34 2 28 5 -8 3
-13 25 -13 58 0 73 -37 110 -70 70 -12 -14 -15 -14 -31 1 -15 14 -24 15 -43 6
-14 -6 -27 -7 -33 -1 -5 5 -17 3 -29 -6z"/>
<path d="M3446 6909 c-33 -26 -37 -86 -7 -113 26 -24 70 -17 90 14 l15 25 -21
-18 c-27 -24 -61 -15 -74 20 -5 13 -9 26 -9 29 0 2 23 4 50 4 54 0 61 9 30 40
-25 25 -41 25 -74 -1z m54 -14 c0 -10 -10 -15 -30 -15 -22 0 -28 4 -24 15 4 8
17 15 30 15 15 0 24 -6 24 -15z"/>
<path d="M3570 6918 c-15 -6 -20 -12 -12 -15 7 -3 12 -25 12 -58 0 -33 -5 -55
-12 -58 -7 -3 5 -6 27 -6 25 0 35 2 27 8 -9 5 -12 25 -10 57 3 42 6 49 26 52
12 2 22 7 22 11 0 15 -13 20 -31 11 -9 -6 -19 -6 -21 -1 -2 5 -14 4 -28 -1z"/>
<path d="M5818 6893 c-38 -6 -84 -52 -96 -96 -29 -104 66 -187 178 -157 l40
11 0 54 c0 41 4 56 18 64 13 8 4 10 -37 11 -47 0 -52 -2 -37 -13 13 -10 17
-24 14 -62 -3 -50 -3 -50 -40 -53 -47 -4 -83 28 -93 82 -23 118 73 193 147
114 l30 -32 -4 34 c-2 28 -7 33 -30 36 -16 1 -36 4 -45 7 -10 2 -30 2 -45 0z"/>
<path d="M6171 6827 c-16 -19 -20 -31 -13 -36 6 -3 12 -38 14 -76 3 -70 3 -70
32 -70 16 0 31 5 33 11 2 7 -4 11 -14 10 -15 -1 -18 8 -21 62 -3 57 -1 62 18
62 11 0 20 5 20 10 0 6 -9 10 -19 10 -13 0 -21 8 -23 23 -3 23 -3 23 -27 -6z"/>
<path d="M12243 6829 c14 -8 17 -25 17 -94 0 -69 -3 -86 -17 -94 -13 -8 4 -10
66 -8 79 2 84 3 93 27 l9 24 -24 -23 c-18 -16 -34 -22 -58 -19 -32 3 -34 5
-37 46 -3 42 -3 42 32 42 19 0 37 -6 39 -12 3 -7 5 3 5 22 0 19 -2 29 -5 23
-2 -7 -20 -13 -39 -13 -33 0 -34 1 -34 40 0 40 0 40 40 40 27 0 42 -6 49 -17
9 -16 10 -16 11 5 0 21 -3 22 -82 22 -61 -1 -78 -3 -65 -11z"/>
<path d="M12602 6791 c-12 -17 -18 -31 -13 -31 6 0 11 -28 13 -62 3 -59 5 -63
27 -63 13 0 26 6 29 13 2 7 -2 10 -12 6 -13 -5 -16 3 -16 49 0 44 3 56 18 60
15 4 15 5 0 6 -10 1 -18 11 -20 27 l-3 26 -23 -31z"/>
<path d="M6008 6799 c-20 -11 -24 -34 -8 -44 6 -3 14 5 20 19 12 32 46 35 56
4 4 -12 2 -24 -3 -25 -48 -16 -78 -43 -81 -72 -4 -38 17 -49 59 -34 16 7 29 7
29 2 0 -15 36 -10 50 6 11 13 10 14 -4 9 -14 -5 -16 3 -16 58 0 36 -5 69 -12
76 -15 15 -66 15 -90 1z m59 -127 c-9 -8 -23 -12 -31 -9 -26 10 -19 45 12 61
26 14 27 13 30 -11 2 -14 -3 -32 -11 -41z"/>
<path d="M6280 6790 c-22 -22 -27 -88 -9 -121 25 -48 95 -42 119 9 11 26 11
26 -7 9 -35 -31 -75 -20 -92 26 l-11 27 60 0 c65 0 72 8 44 48 -20 29 -76 30
-104 2z m68 -2 c20 -20 14 -28 -23 -28 -19 0 -35 4 -35 8 0 12 22 32 35 32 6
0 16 -5 23 -12z"/>
<path d="M12440 6768 c-15 -6 -20 -12 -12 -15 7 -3 12 -25 12 -58 0 -33 -5
-55 -12 -58 -7 -3 5 -5 27 -5 22 0 34 2 28 5 -8 3 -13 24 -13 53 0 39 4 52 20
60 15 8 21 6 30 -9 14 -27 13 -84 -2 -99 -9 -9 -5 -12 21 -12 26 0 31 3 23 13
-6 7 -12 37 -14 66 -4 65 -25 86 -57 57 -16 -14 -20 -15 -23 -3 -2 11 -9 12
-28 5z"/>
<path d="M12684 6765 c-10 -8 -14 -15 -6 -15 16 0 16 -92 0 -108 -9 -9 -3 -12
28 -11 21 0 33 3 27 6 -8 3 -13 25 -13 60 0 50 2 55 20 50 23 -6 37 10 22 25
-8 8 -15 8 -25 0 -9 -8 -17 -8 -23 -2 -7 7 -17 5 -30 -5z"/>
<path d="M12802 6764 c-25 -17 -29 -34 -7 -34 8 0 15 6 15 14 0 23 29 27 40 6
9 -17 5 -22 -30 -40 -35 -18 -41 -25 -38 -48 3 -30 39 -42 64 -22 10 9 14 9
14 1 0 -16 26 -13 40 5 11 12 11 15 -1 12 -10 -2 -15 10 -17 47 -5 74 -31 94
-80 59z m56 -81 c-4 -35 -48 -48 -48 -14 0 18 23 40 43 41 5 0 7 -12 5 -27z"/>
<path d="M12930 6768 c-18 -7 -21 -11 -11 -17 9 -6 12 -26 10 -65 l-4 -56 30
1 c17 0 24 3 18 6 -8 3 -13 24 -13 53 0 38 4 52 18 59 13 7 23 6 30 -1 16 -16
15 -105 0 -111 -7 -3 5 -5 27 -5 22 0 34 2 28 5 -8 3 -13 24 -13 53 0 32 -6
55 -19 71 -18 22 -19 22 -44 6 -21 -13 -26 -14 -29 -3 -2 10 -9 11 -28 4z"/>
<path d="M13106 6759 c-37 -29 -37 -89 0 -118 30 -24 60 -17 83 20 15 24 15
24 -5 7 -42 -37 -77 -13 -72 49 2 28 8 39 22 41 10 2 23 -3 28 -12 11 -20 28
-21 28 -1 0 14 -29 35 -48 35 -5 0 -21 -9 -36 -21z"/>
<path d="M13246 6759 c-33 -26 -37 -86 -7 -113 26 -24 70 -17 90 14 l15 25
-21 -18 c-27 -24 -61 -15 -74 20 -5 13 -9 26 -9 29 0 2 23 4 50 4 54 0 61 9
30 40 -25 25 -41 25 -74 -1z m54 -14 c0 -10 -10 -15 -30 -15 -22 0 -28 4 -24
15 4 8 17 15 30 15 15 0 24 -6 24 -15z"/>
<path d="M5225 5653 c-30 -7 -63 -42 -75 -79 -15 -43 2 -98 35 -120 43 -28
117 -18 136 18 12 21 11 21 -16 0 -34 -27 -65 -28 -96 -3 -20 16 -24 29 -24
74 0 40 5 61 19 76 27 30 71 27 101 -5 l25 -27 0 31 c0 23 -4 30 -17 30 -10
-1 -29 1 -43 4 -14 3 -34 3 -45 1z"/>
<path d="M5361 5651 c-9 -6 -10 -11 -2 -15 15 -10 15 -168 -1 -184 -9 -9 -3
-12 28 -11 21 0 33 3 27 6 -8 3 -13 25 -13 58 0 34 5 55 13 58 27 9 37 -6 37
-58 0 -33 -5 -55 -12 -58 -7 -3 5 -5 27 -5 22 0 34 2 28 5 -8 3 -13 25 -13 58
0 35 -5 59 -16 69 -18 19 -20 19 -45 6 -17 -10 -19 -7 -19 35 0 45 -10 54 -39
36z"/>
<path d="M5900 5650 c-10 -6 -11 -10 -2 -10 9 0 12 -26 12 -94 0 -102 2 -106
59 -106 44 0 65 33 62 97 -1 32 -43 58 -70 43 -20 -10 -21 -8 -21 35 0 46 -10
55 -40 35z m101 -117 c14 -38 -2 -78 -32 -78 -21 0 -24 5 -27 39 -4 50 3 66
28 66 13 0 24 -10 31 -27z"/>
<path d="M5538 5579 c-19 -11 -25 -39 -8 -39 5 0 14 9 20 20 12 23 40 16 40
-10 0 -11 -12 -22 -29 -28 -36 -13 -57 -47 -41 -67 12 -14 102 -16 116 -2 4 4
2 7 -4 7 -8 0 -12 20 -12 55 0 43 -4 56 -19 65 -24 12 -41 12 -63 -1z m50 -86
c-3 -32 -35 -44 -45 -17 -4 11 1 22 12 30 28 21 37 17 33 -13z"/>
<path d="M5664 5575 c-10 -8 -14 -15 -6 -15 8 0 12 -18 12 -54 0 -34 -5 -56
-12 -59 -7 -3 5 -5 27 -5 22 0 34 2 28 5 -20 8 -17 109 3 117 9 3 20 4 25 0
14 -8 11 -111 -3 -117 -7 -3 5 -5 27 -5 22 0 34 2 28 5 -21 8 -17 100 5 111
31 17 42 3 42 -53 0 -33 -5 -55 -12 -58 -7 -3 5 -5 27 -5 22 0 34 2 28 5 -8 3
-13 25 -13 58 0 73 -37 110 -70 70 -12 -14 -15 -14 -31 1 -15 14 -24 15 -43 6
-14 -6 -27 -7 -33 -1 -5 5 -17 3 -29 -6z"/>
<path d="M6086 5569 c-33 -26 -37 -86 -7 -113 26 -24 70 -17 90 14 l15 25 -21
-18 c-27 -24 -61 -15 -74 20 -5 13 -9 26 -9 29 0 2 23 4 50 4 54 0 61 9 30 40
-25 25 -41 25 -74 -1z m54 -14 c0 -10 -10 -15 -30 -15 -22 0 -28 4 -24 15 4 8
17 15 30 15 15 0 24 -6 24 -15z"/>
<path d="M6210 5578 c-15 -6 -20 -12 -12 -15 7 -3 12 -25 12 -58 0 -33 -5 -55
-12 -58 -7 -3 5 -6 27 -6 25 0 35 2 27 8 -9 5 -12 25 -10 57 3 42 6 49 26 52
12 2 22 7 22 11 0 15 -13 20 -31 11 -9 -6 -19 -6 -21 -1 -2 5 -14 4 -28 -1z"/>
<path d="M9381 5441 c-9 -6 -10 -11 -2 -15 15 -10 15 -168 -1 -184 -9 -9 -3
-12 28 -11 21 0 33 3 27 6 -9 3 -13 35 -13 109 0 106 -4 117 -39 95z"/>
<path d="M9617 5444 c-8 -8 1 -24 14 -24 5 0 9 7 9 15 0 15 -12 20 -23 9z"/>
<path d="M9198 5433 c8 -3 12 -33 12 -98 0 -65 -4 -95 -12 -98 -7 -3 7 -5 32
-5 25 0 39 2 33 5 -8 3 -13 23 -13 48 0 36 3 42 18 39 24 -6 63 17 73 43 6 16
2 29 -12 47 -18 23 -27 26 -82 25 -34 0 -56 -3 -49 -6z m96 -19 c29 -29 13
-74 -26 -74 -15 0 -18 8 -18 45 0 49 15 59 44 29z"/>
<path d="M9822 5391 c-12 -17 -18 -31 -13 -31 6 0 11 -28 13 -62 3 -59 5 -63
27 -63 13 0 26 6 29 13 2 7 -2 10 -12 6 -13 -5 -16 3 -16 49 0 44 3 56 18 60
15 4 15 5 0 6 -10 1 -18 11 -20 27 l-3 26 -23 -31z"/>
<path d="M9487 5368 c-26 -20 -38 -64 -26 -95 12 -33 26 -43 61 -43 26 0 57
34 44 48 -3 3 -6 1 -6 -5 0 -19 -32 -24 -56 -8 -13 9 -24 24 -24 35 0 17 7 20
45 20 51 0 60 18 23 44 -27 19 -39 20 -61 4z m51 -25 c2 -9 -7 -13 -27 -13
-30 0 -39 9 -24 24 11 10 46 3 51 -11z"/>
<path d="M9610 5368 c-18 -7 -21 -11 -11 -17 9 -6 12 -26 10 -65 l-4 -56 30 0
c18 0 25 3 18 8 -7 4 -13 36 -15 73 -3 66 -3 66 -28 57z"/>
<path d="M9708 5369 c-30 -17 -22 -55 17 -78 42 -24 47 -51 10 -51 -17 0 -29
7 -35 23 -8 21 -9 21 -9 -5 -1 -26 2 -28 39 -28 68 0 74 52 9 86 -18 9 -29 22
-27 31 4 23 23 27 42 8 13 -14 16 -14 16 -2 0 25 -34 33 -62 16z"/>
<path d="M9934 5370 c-11 -4 -26 -22 -33 -38 -23 -54 8 -102 64 -102 63 0 88
78 40 125 -26 26 -37 29 -71 15z m56 -29 c21 -40 9 -101 -20 -101 -22 0 -35
16 -44 53 -13 54 39 93 64 48z"/>
<path d="M10080 5360 c-29 -29 -34 -63 -16 -99 19 -36 62 -43 89 -13 24 26 21
39 -3 17 -10 -9 -26 -15 -35 -11 -40 15 -44 106 -4 106 11 0 22 -7 25 -15 8
-19 34 -20 34 0 0 16 -30 35 -54 35 -9 0 -25 -9 -36 -20z"/>
<path d="M10227 5368 c-26 -20 -38 -64 -26 -95 12 -33 26 -43 61 -43 26 0 57
34 44 48 -3 3 -6 1 -6 -5 0 -19 -32 -24 -56 -8 -13 9 -24 24 -24 35 0 17 7 20
45 20 51 0 60 18 23 44 -27 19 -39 20 -61 4z m51 -25 c2 -9 -7 -13 -27 -13
-30 0 -39 9 -24 24 11 10 46 3 51 -11z"/>
<path d="M10344 5365 c-11 -8 -14 -15 -6 -15 16 0 16 -92 0 -108 -9 -9 -3 -12
28 -11 21 0 33 3 27 6 -20 8 -17 109 3 117 9 3 20 4 25 0 14 -8 11 -111 -3
-117 -7 -3 5 -5 27 -5 22 0 34 2 28 5 -8 3 -13 25 -13 58 0 68 -24 98 -60 75
-9 -5 -19 -5 -25 0 -8 6 -19 4 -31 -5z"/>
<path d="M10515 5355 c-45 -44 -23 -125 34 -125 26 0 70 34 59 45 -3 3 -11 -1
-18 -10 -17 -20 -33 -19 -53 3 -31 35 -22 52 28 52 51 0 60 18 23 44 -31 22
-45 20 -73 -9z m59 -10 c4 -11 -2 -15 -24 -15 -29 0 -38 9 -23 23 12 12 41 7
47 -8z"/>
<path d="M5524 5266 c-69 -31 -87 -120 -36 -177 24 -26 36 -32 72 -32 36 0 48
6 72 32 76 84 -8 221 -108 177z m81 -26 c27 -29 27 -120 1 -149 -25 -28 -70
-27 -90 1 -10 13 -16 43 -16 73 0 30 6 60 16 73 19 28 65 29 89 2z"/>
<path d="M5700 5198 c-15 -6 -20 -12 -12 -15 7 -3 12 -25 12 -58 0 -33 -5 -55
-12 -58 -7 -3 5 -5 27 -5 22 0 34 2 28 5 -8 3 -13 24 -13 53 0 39 4 52 20 60
15 8 21 6 30 -9 14 -27 13 -84 -2 -99 -9 -9 -5 -12 21 -12 26 0 31 3 23 13 -6
7 -12 37 -14 66 -4 65 -25 86 -57 57 -16 -14 -20 -15 -23 -3 -2 11 -9 12 -28
5z"/>
<path d="M5870 5190 c-27 -27 -27 -90 -1 -114 26 -24 70 -17 90 14 l16 24 -25
-17 c-31 -22 -36 -21 -60 3 -35 35 -26 50 30 50 43 0 49 2 43 18 -15 43 -61
54 -93 22z m58 -17 c2 -9 -7 -13 -27 -13 -30 0 -39 9 -24 24 11 10 46 3 51
-11z"/>
<path d="M10020 5060 c-10 -6 -11 -10 -2 -10 9 0 12 -26 12 -94 0 -66 -4 -96
-12 -99 -7 -3 5 -5 27 -5 22 0 34 2 28 5 -9 3 -13 35 -13 109 0 107 -4 117
-40 94z"/>
<path d="M10111 5061 c-9 -6 -10 -11 -2 -15 15 -10 15 -168 -1 -184 -9 -9 -3
-12 28 -11 21 0 33 3 27 6 -9 3 -13 35 -13 109 0 106 -4 117 -39 95z"/>
<path d="M9648 5053 c8 -3 12 -33 12 -98 0 -81 -2 -94 -17 -98 -10 -3 5 -5 32
-6 38 0 46 2 33 10 -12 7 -18 22 -18 49 l0 40 50 0 50 0 0 -40 c0 -27 -6 -42
-17 -49 -14 -8 -6 -10 32 -10 28 1 42 3 33 6 -16 4 -18 17 -18 98 0 81 2 94
18 98 9 3 -5 5 -33 5 -27 0 -42 -2 -32 -5 13 -3 17 -15 17 -49 l0 -45 -47 3
c-47 3 -48 4 -51 38 -3 24 2 38 14 47 16 11 12 13 -27 12 -24 0 -38 -3 -31 -6z"/>
<path d="M9886 4984 c-20 -19 -21 -34 -2 -34 7 0 16 9 19 20 3 13 10 18 21 14
28 -11 18 -39 -20 -57 -29 -14 -35 -22 -32 -45 3 -25 6 -27 56 -28 29 -1 55 2
58 7 3 5 0 9 -5 9 -7 0 -11 23 -11 55 0 43 -4 56 -19 65 -27 14 -47 13 -65 -6z
m54 -79 c0 -28 -25 -44 -42 -27 -9 9 -7 17 7 32 24 27 35 25 35 -5z"/>
<path d="M14620 4595 c0 -8 7 -15 15 -15 8 0 15 7 15 15 0 8 -7 15 -15 15 -8
0 -15 -7 -15 -15z"/>
<path d="M13713 4589 c14 -8 17 -25 17 -94 0 -69 -3 -86 -17 -94 -14 -8 -6
-10 32 -10 28 1 42 3 33 6 -14 3 -18 15 -18 47 0 40 2 43 23 39 28 -6 77 31
77 58 0 39 -35 59 -102 59 -48 -1 -59 -3 -45 -11z m91 -15 c29 -28 16 -74 -20
-74 -21 0 -24 5 -24 38 0 54 15 66 44 36z"/>
<path d="M13905 4515 c-46 -45 -21 -127 38 -127 52 0 84 49 66 102 -19 54 -65
65 -104 25z m64 -9 c7 -8 11 -34 9 -58 -2 -36 -7 -44 -25 -46 -17 -3 -26 3
-33 23 -11 30 -13 78 -3 88 11 12 40 8 52 -7z"/>
<path d="M14050 4528 c-15 -6 -20 -12 -12 -15 7 -3 12 -25 12 -58 0 -33 -5
-55 -12 -58 -7 -3 5 -6 27 -6 25 0 35 2 27 8 -9 5 -12 25 -10 57 3 42 6 49 26
52 12 2 22 7 22 11 0 15 -13 20 -31 11 -9 -6 -19 -6 -21 -1 -2 5 -14 4 -28 -1z"/>
<path d="M14170 4520 c-29 -29 -34 -63 -16 -99 19 -36 62 -43 89 -13 24 26 21
39 -3 17 -10 -9 -26 -15 -35 -11 -40 15 -44 106 -4 106 11 0 22 -7 25 -15 8
-19 34 -20 34 0 0 16 -30 35 -54 35 -9 0 -25 -9 -36 -20z"/>
<path d="M14450 4528 c-15 -6 -20 -12 -12 -15 8 -3 12 -32 12 -93 0 -61 -4
-90 -12 -93 -7 -3 5 -5 27 -5 22 0 34 2 28 5 -7 2 -13 18 -13 34 0 25 4 29 29
29 74 0 94 103 29 144 -13 8 -22 6 -37 -8 -16 -14 -20 -15 -23 -3 -2 11 -9 12
-28 5z m92 -43 c17 -38 0 -80 -32 -80 -22 0 -25 5 -28 39 -2 21 -1 44 2 52 9
23 45 16 58 -11z"/>
<path d="M14620 4528 c-15 -6 -20 -12 -12 -15 7 -3 12 -25 12 -58 0 -33 -5
-55 -12 -58 -7 -3 5 -6 27 -6 22 0 35 3 28 7 -7 4 -13 36 -15 73 -3 66 -3 66
-28 57z"/>
<path d="M14700 4528 c-15 -6 -20 -12 -12 -15 7 -3 12 -25 12 -58 0 -33 -5
-55 -12 -58 -7 -3 5 -5 27 -5 22 0 34 2 28 5 -8 3 -13 24 -13 53 0 39 4 52 20
60 15 8 21 6 30 -9 14 -27 13 -84 -2 -99 -9 -9 -5 -12 21 -12 26 0 31 3 23 13
-6 7 -12 37 -14 66 -4 65 -25 86 -57 57 -16 -14 -20 -15 -23 -3 -2 11 -9 12
-28 5z"/>
<path d="M14870 4520 c-27 -27 -27 -90 -1 -114 26 -24 70 -17 90 14 l16 24
-25 -17 c-31 -22 -36 -21 -60 3 -35 35 -26 50 30 50 43 0 49 2 43 18 -15 43
-61 54 -93 22z m58 -17 c2 -9 -7 -13 -27 -13 -30 0 -39 9 -24 24 11 10 46 3
51 -11z"/>
<path d="M14288 4518 c7 -7 12 -36 12 -65 0 -61 21 -83 58 -58 15 11 21 12 24
3 4 -10 10 -10 29 -1 13 6 18 12 12 12 -9 1 -13 20 -13 61 0 59 -1 60 -27 60
-19 0 -24 -3 -15 -9 9 -5 12 -24 10 -57 -2 -38 -7 -50 -22 -52 -26 -5 -36 15
-36 71 0 42 -2 47 -22 47 -17 0 -19 -3 -10 -12z"/>
<path d="M13793 4209 c14 -8 17 -25 17 -94 0 -69 -3 -86 -17 -94 -13 -8 4 -10
66 -8 79 2 84 3 93 27 l9 24 -24 -23 c-18 -16 -34 -22 -58 -19 -32 3 -34 5
-37 46 -3 42 -3 42 32 42 19 0 37 -6 39 -12 3 -7 5 3 5 22 0 19 -2 29 -5 23
-2 -7 -20 -13 -39 -13 -33 0 -34 1 -34 40 0 40 0 40 40 40 27 0 42 -6 49 -17
9 -16 10 -16 11 5 0 21 -3 22 -82 22 -61 -1 -78 -3 -65 -11z"/>
<path d="M14147 4165 c-10 -14 -13 -25 -8 -25 6 0 11 -28 13 -62 3 -59 5 -63
27 -63 13 0 26 6 29 13 2 7 -2 10 -12 6 -13 -5 -16 3 -16 49 0 44 3 56 18 60
16 4 16 5 0 6 -11 1 -18 9 -18 21 0 27 -11 25 -33 -5z"/>
<path d="M13984 4145 c-11 -8 -14 -15 -6 -15 8 0 12 -18 12 -54 0 -34 -5 -56
-12 -59 -7 -3 5 -5 27 -5 22 0 34 2 28 5 -18 7 -17 97 2 113 8 6 19 9 25 5 15
-9 13 -112 -2 -118 -7 -3 5 -5 27 -5 22 0 34 2 28 5 -8 3 -13 26 -13 63 0 69
-16 90 -55 72 -15 -7 -25 -8 -25 -2 0 14 -13 12 -36 -5z"/>
<path d="M14234 4145 c-10 -8 -14 -15 -6 -15 16 0 16 -92 0 -108 -9 -9 -3 -12
28 -11 21 0 33 3 27 6 -8 3 -13 25 -13 60 0 50 2 55 20 50 23 -6 37 10 22 25
-8 8 -15 8 -25 0 -9 -8 -17 -8 -23 -2 -7 7 -17 5 -30 -5z"/>
<path d="M14352 4144 c-25 -17 -29 -34 -7 -34 8 0 15 6 15 14 0 23 29 27 40 6
9 -17 5 -22 -30 -40 -35 -18 -41 -25 -38 -48 3 -30 39 -42 64 -22 10 9 14 9
14 1 0 -16 26 -13 40 5 11 12 11 15 -1 12 -10 -2 -15 10 -17 47 -5 74 -31 94
-80 59z m56 -81 c-4 -35 -48 -48 -48 -14 0 18 23 40 43 41 5 0 7 -12 5 -27z"/>
<path d="M14480 4148 c-15 -6 -20 -12 -12 -15 7 -3 12 -25 12 -58 0 -33 -5
-55 -12 -58 -7 -3 5 -5 27 -5 22 0 34 2 28 5 -8 3 -13 24 -13 53 0 39 4 52 20
60 15 8 21 6 30 -9 14 -27 13 -84 -2 -99 -9 -9 -5 -12 21 -12 26 0 31 3 23 13
-6 7 -12 37 -14 66 -4 65 -25 86 -57 57 -16 -14 -20 -15 -23 -3 -2 11 -9 12
-28 5z"/>
<path d="M14656 4139 c-20 -15 -26 -29 -26 -57 0 -42 7 -55 36 -70 26 -14 67
5 72 33 4 18 3 18 -13 1 -23 -22 -46 -17 -64 16 -12 21 -13 31 -3 52 13 28 52
36 52 11 0 -8 7 -15 15 -15 22 0 19 27 -4 40 -27 14 -35 13 -65 -11z"/>
<path d="M14796 4139 c-33 -26 -37 -86 -7 -113 26 -24 70 -17 90 14 l15 25
-21 -18 c-27 -24 -61 -15 -74 20 -5 13 -9 26 -9 29 0 2 23 4 50 4 54 0 61 9
30 40 -25 25 -41 25 -74 -1z m54 -14 c0 -10 -10 -15 -30 -15 -22 0 -28 4 -24
15 4 8 17 15 30 15 15 0 24 -6 24 -15z"/>
<path d="M5013 2035 c-65 -28 -84 -121 -35 -176 23 -26 36 -32 71 -32 34 0 48
6 69 28 l27 28 -29 -21 c-36 -28 -66 -28 -100 -1 -22 18 -26 28 -26 75 0 41 5
59 20 74 29 29 74 26 99 -6 l21 -27 0 38 c0 29 -3 35 -12 27 -8 -5 -22 -6 -33
-1 -28 11 -36 10 -72 -6z"/>
<path d="M5175 2042 c-6 -4 -10 -53 -10 -110 l0 -102 30 1 c17 0 24 3 18 6 -8
3 -13 24 -13 53 0 38 4 52 18 59 13 7 23 6 30 -1 16 -16 15 -105 0 -111 -7 -3
5 -5 27 -5 22 0 34 2 28 5 -8 3 -13 22 -13 46 0 84 -22 111 -66 82 l-24 -15 0
50 c0 49 -5 57 -25 42z"/>
<path d="M5712 2043 c-9 -3 -10 -9 -3 -17 6 -7 11 -52 13 -102 l3 -89 37 -3
c48 -4 78 24 78 73 0 51 -55 98 -75 65 -14 -23 -25 -7 -25 35 0 45 -3 48 -28
38z m94 -117 c8 -35 1 -67 -18 -79 -34 -22 -62 36 -42 87 10 26 53 20 60 -8z"/>
<path d="M5342 1964 c-25 -17 -29 -34 -7 -34 8 0 15 6 15 14 0 23 29 27 40 6
9 -17 5 -22 -30 -40 -35 -18 -41 -25 -38 -48 3 -30 39 -42 64 -22 10 9 14 9
14 1 0 -16 26 -13 40 5 11 12 11 15 -1 12 -10 -2 -15 10 -17 47 -5 74 -31 94
-80 59z m56 -81 c-4 -35 -48 -48 -48 -14 0 18 23 40 43 41 5 0 7 -12 5 -27z"/>
<path d="M5470 1968 c-15 -6 -20 -12 -12 -15 7 -3 12 -25 12 -58 0 -33 -5 -55
-12 -58 -7 -3 5 -5 27 -5 22 0 34 2 28 5 -8 3 -13 24 -13 53 0 38 4 52 18 59
13 7 23 6 30 -1 16 -16 15 -105 0 -111 -7 -3 5 -5 27 -5 22 0 34 2 28 5 -8 3
-13 25 -13 58 0 35 -5 59 -16 69 -19 20 -24 20 -51 1 -18 -13 -22 -13 -25 -1
-2 10 -9 11 -28 4z"/>
<path d="M5604 1965 c-18 -15 -18 -16 6 -13 24 3 25 0 28 -51 2 -37 -1 -57
-10 -62 -8 -6 2 -8 27 -8 22 0 34 3 28 6 -8 3 -13 25 -13 62 0 76 -23 99 -66
66z"/>
<path d="M5897 1968 c-26 -20 -38 -64 -26 -95 12 -33 26 -43 61 -43 26 0 57
34 44 48 -3 3 -6 1 -6 -5 0 -19 -32 -24 -56 -8 -13 9 -24 24 -24 35 0 17 7 20
45 20 51 0 60 18 23 44 -27 19 -39 20 -61 4z m51 -25 c2 -9 -7 -13 -27 -13
-30 0 -39 9 -24 24 11 10 46 3 51 -11z"/>
<path d="M6014 1965 c-11 -8 -14 -15 -6 -15 8 0 12 -18 12 -54 0 -34 -5 -56
-12 -59 -7 -3 5 -6 27 -6 25 0 35 2 27 8 -9 5 -12 25 -10 57 2 41 6 49 22 49
11 0 21 5 23 12 6 17 -16 26 -32 13 -11 -9 -15 -9 -15 -1 0 15 -12 14 -36 -4z"/>
<path d="M5251 1633 c0 -16 3 -22 6 -13 8 19 23 30 46 30 15 0 17 -11 17 -94
0 -82 -2 -95 -17 -99 -10 -3 4 -5 31 -6 43 -1 47 1 32 12 -25 18 -20 180 6
185 9 2 26 -6 38 -18 l22 -22 -4 24 c-3 22 -7 23 -90 26 l-88 3 1 -28z"/>
<path d="M5675 1575 c-57 -56 -8 -149 66 -123 27 9 49 44 49 79 0 26 -43 69
-70 69 -11 0 -32 -11 -45 -25z m75 -25 c25 -61 -15 -116 -52 -71 -31 40 -21
101 17 101 16 0 26 -9 35 -30z"/>
<path d="M5447 1528 c13 -35 29 -67 33 -72 5 -5 16 10 26 35 l18 43 19 -43
c10 -24 22 -39 27 -35 4 5 19 37 33 72 19 47 21 62 11 62 -8 0 -14 -8 -14 -17
-1 -10 -7 -31 -14 -48 l-13 -30 -16 39 c-9 21 -14 42 -11 47 3 5 -6 9 -20 9
-22 0 -25 -3 -15 -17 8 -13 7 -27 -5 -53 l-14 -35 -12 30 c-7 17 -13 40 -13
52 -2 16 -8 23 -24 23 l-22 0 26 -62z"/>
<path d="M12830 1278 c-41 -20 -43 -22 -20 -26 14 -2 28 -9 32 -16 9 -13 11
-398 2 -420 -3 -9 -12 -16 -19 -16 -8 0 -17 -4 -20 -10 -4 -6 23 -10 74 -10
47 0 81 4 81 10 0 6 -9 10 -19 10 -10 0 -22 7 -25 16 -3 9 -6 121 -6 250 0
265 5 251 -80 212z"/>
<path d="M4508 1263 c-63 -66 -63 -164 0 -235 25 -29 34 -21 12 10 -41 55 -35
187 11 233 10 10 15 19 11 19 -5 0 -20 -12 -34 -27z"/>
<path d="M5025 1282 c-6 -4 -10 -53 -10 -110 l0 -102 29 0 c23 0 27 3 18 12
-8 8 -12 47 -12 110 0 94 -3 106 -25 90z"/>
<path d="M5575 1280 c-4 -6 -3 -30 1 -53 5 -34 8 -38 15 -22 17 44 4 107 -16
75z"/>
<path d="M6512 1263 c48 -59 46 -185 -4 -241 l-23 -26 25 15 c31 19 70 93 70
134 0 41 -39 115 -70 134 l-25 16 27 -32z"/>
<path d="M10684 1276 c-74 -33 -99 -135 -48 -196 15 -17 63 -52 108 -78 94
-54 126 -85 126 -121 0 -59 -57 -91 -135 -77 -44 9 -92 57 -101 101 -11 63
-24 37 -24 -50 0 -78 10 -107 23 -70 5 13 12 13 54 0 127 -39 231 3 249 101
13 68 -24 114 -146 184 -100 57 -120 76 -120 116 0 61 74 93 138 60 37 -19 57
-44 72 -88 19 -61 30 -44 30 47 0 47 -3 85 -7 85 -3 0 -14 -7 -23 -15 -15 -14
-21 -14 -53 0 -44 18 -102 19 -143 1z"/>
<path d="M13357 1276 c-99 -36 -158 -117 -165 -232 -8 -119 42 -214 133 -255
53 -24 147 -24 200 0 39 17 105 81 105 101 0 16 -5 12 -47 -29 -77 -78 -182
-79 -254 -2 -94 98 -65 340 46 387 88 36 169 6 218 -81 l28 -50 -3 82 c-3 89
-11 107 -32 77 -14 -18 -16 -18 -63 -1 -57 20 -114 21 -166 3z"/>
<path d="M4573 1269 c14 -8 17 -25 17 -94 0 -69 -3 -86 -17 -94 -14 -8 -6 -10
32 -10 28 1 42 3 33 6 -14 3 -18 15 -18 49 0 42 1 44 29 44 16 0 32 -6 34 -12
3 -7 6 3 6 22 1 26 -2 31 -11 22 -7 -7 -22 -12 -35 -12 -20 0 -23 5 -23 40 0
38 1 40 32 40 17 0 40 -8 51 -17 19 -17 19 -17 16 2 -4 18 -13 20 -84 22 -59
2 -75 0 -62 -8z"/>
<path d="M4910 1208 c-15 -6 -20 -12 -12 -15 7 -3 12 -25 12 -60 0 -46 -3 -54
-16 -49 -9 3 -18 6 -20 6 -2 0 -4 27 -4 60 0 59 -1 60 -27 60 -19 0 -24 -3
-15 -9 9 -5 12 -25 10 -57 -3 -45 -5 -49 -28 -49 -23 0 -25 4 -28 58 -2 46 -6
57 -20 57 -15 0 -17 -7 -12 -57 3 -32 9 -64 13 -70 10 -16 49 -17 65 -1 9 9
12 8 12 -5 0 -14 4 -16 16 -9 9 5 37 7 63 5 30 -3 41 -1 33 5 -9 6 -12 26 -10
58 3 42 6 49 26 52 12 2 22 10 22 18 0 16 -9 18 -30 4 -8 -5 -17 -5 -20 -1 -3
5 -16 4 -30 -1z"/>
<path d="M5115 1195 c-57 -56 -8 -149 66 -123 27 9 49 44 49 79 0 26 -43 69
-70 69 -11 0 -32 -11 -45 -25z m75 -25 c25 -61 -15 -116 -52 -71 -31 40 -21
101 17 101 16 0 26 -9 35 -30z"/>
<path d="M5260 1208 c-18 -7 -21 -11 -11 -17 9 -6 12 -26 10 -65 l-4 -56 30 1
c17 0 24 3 18 6 -8 3 -13 24 -13 53 0 38 4 52 18 59 13 7 23 6 30 -1 16 -16
15 -105 0 -111 -7 -3 5 -5 27 -5 22 0 34 2 28 5 -8 3 -13 22 -13 46 0 84 -22
111 -66 82 -19 -12 -23 -12 -26 -1 -2 10 -9 11 -28 4z"/>
<path d="M5442 1204 c-24 -16 -29 -53 -10 -72 8 -8 8 -15 -1 -26 -7 -8 -10
-20 -7 -25 4 -6 1 -20 -6 -31 -11 -18 -10 -23 6 -36 29 -21 71 -17 103 10 38
33 23 59 -38 66 -50 6 -59 23 -14 28 39 5 55 19 55 47 0 13 6 25 13 28 19 7 6
14 -39 20 -28 5 -47 2 -62 -9z m46 -6 c7 -7 12 -25 12 -41 0 -24 -4 -28 -22
-25 -23 3 -35 35 -24 64 7 17 18 18 34 2z m20 -134 c43 -12 20 -44 -31 -44
-32 0 -51 15 -44 34 7 16 35 20 75 10z"/>
<path d="M5648 1209 c-30 -17 -22 -55 17 -78 42 -24 47 -51 10 -51 -17 0 -29
7 -35 23 -8 21 -9 21 -9 -5 -1 -26 2 -28 39 -28 54 0 71 29 38 63 -13 13 -32
28 -42 34 -12 7 -17 17 -13 27 9 22 22 20 47 -6 20 -22 20 -22 20 -1 0 13 -8
23 -22 27 -29 7 -30 7 -50 -5z"/>
<path d="M5834 1205 c-11 -8 -14 -15 -6 -15 8 0 12 -18 12 -54 0 -34 -5 -56
-12 -59 -7 -3 5 -6 27 -6 25 0 35 2 27 8 -9 5 -12 25 -10 57 2 41 6 49 22 49
11 0 21 5 23 12 6 17 -16 26 -32 13 -11 -9 -15 -9 -15 -1 0 15 -12 14 -36 -4z"/>
<path d="M5972 1213 c-7 -3 -19 -18 -28 -35 -28 -54 2 -108 61 -108 63 0 88
78 40 125 -23 24 -45 29 -73 18z m58 -32 c21 -40 9 -101 -20 -101 -22 0 -35
16 -44 53 -13 54 39 93 64 48z"/>
<path d="M6115 1195 c-57 -56 -8 -149 66 -123 27 9 49 44 49 79 0 26 -43 69
-70 69 -11 0 -32 -11 -45 -25z m75 -25 c25 -61 -15 -116 -52 -71 -31 40 -21
101 17 101 16 0 26 -9 35 -30z"/>
<path d="M6260 1208 c-15 -6 -20 -12 -12 -15 7 -3 12 -25 12 -58 0 -33 -5 -55
-12 -58 -7 -3 5 -5 27 -5 22 0 34 2 28 5 -8 3 -13 24 -13 53 0 38 4 52 18 59
13 7 23 6 30 -1 16 -16 15 -105 0 -111 -7 -3 5 -5 27 -5 22 0 34 2 28 5 -8 3
-13 25 -13 58 0 35 -5 59 -16 69 -19 20 -24 20 -51 1 -18 -13 -22 -13 -25 -1
-2 10 -9 11 -28 4z"/>
<path d="M6394 1205 c-18 -15 -18 -16 6 -13 24 3 25 0 28 -51 2 -37 -1 -57
-10 -62 -8 -6 2 -8 27 -8 22 0 34 3 28 6 -8 3 -13 25 -13 62 0 76 -23 99 -66
66z"/>
<path d="M11093 1123 c-37 -7 -75 -50 -71 -81 2 -21 8 -27 28 -27 20 0 26 6
28 30 5 40 19 55 53 55 37 0 59 -24 59 -63 0 -30 -4 -34 -65 -61 -85 -37 -115
-67 -115 -118 0 -28 7 -46 25 -63 30 -31 59 -31 109 -1 l39 23 21 -24 c18 -20
25 -23 46 -15 29 11 66 49 57 58 -4 4 -13 1 -22 -6 -9 -7 -18 -10 -21 -7 -3 3
-8 61 -11 129 -3 68 -10 131 -14 140 -15 28 -85 43 -146 31z m76 -285 c-61
-51 -132 20 -81 81 9 11 35 30 57 40 l40 19 3 -61 c3 -54 0 -64 -19 -79z"/>
<path d="M11368 1108 c-44 -19 -65 -41 -35 -37 36 4 37 1 37 -131 l0 -130 -27
-12 c-27 -12 -27 -13 20 -16 26 -2 67 -2 90 0 41 4 41 4 16 15 -18 8 -28 22
-33 43 -8 41 -8 173 0 195 14 36 100 59 123 31 15 -18 25 -151 17 -210 -6 -37
-12 -49 -32 -56 -13 -5 -24 -12 -24 -15 0 -3 38 -5 85 -5 47 0 85 4 85 9 0 5
-10 11 -22 13 -22 3 -23 7 -26 120 -3 115 -2 116 24 137 35 28 78 27 98 -1 12
-17 16 -48 16 -124 0 -115 -4 -134 -30 -134 -11 0 -22 -4 -25 -10 -4 -6 25
-10 79 -10 47 0 86 2 86 5 0 3 -11 10 -25 15 -25 9 -25 11 -25 132 0 104 -3
128 -19 155 -33 54 -104 53 -163 -4 -26 -25 -26 -25 -33 -4 -9 29 -61 54 -94
46 -14 -4 -40 -17 -58 -31 -40 -31 -43 -30 -43 6 0 35 0 35 -62 8z"/>
<path d="M12555 1116 c-65 -29 -95 -84 -95 -174 1 -133 115 -214 210 -149 39
26 73 78 68 104 -3 14 -8 11 -23 -15 -27 -45 -79 -61 -127 -38 -39 19 -63 54
-73 109 l-7 37 116 0 c114 0 116 0 116 23 0 35 -38 87 -75 103 -42 17 -71 17
-110 0z m79 -37 c15 -12 26 -30 26 -45 0 -23 -2 -24 -76 -24 -73 0 -75 1 -69
23 8 28 51 67 74 67 10 0 30 -9 45 -21z"/>
<path d="M13773 1123 c-37 -7 -75 -50 -71 -81 2 -21 8 -27 28 -27 20 0 26 6
28 30 5 40 19 55 53 55 37 0 59 -24 59 -63 0 -30 -4 -34 -65 -61 -85 -37 -115
-67 -115 -118 0 -28 7 -46 25 -63 30 -31 59 -31 109 -1 l39 23 21 -24 c18 -20
25 -23 46 -15 29 11 66 49 57 58 -4 4 -13 1 -22 -6 -9 -7 -18 -10 -21 -7 -3 3
-8 61 -11 129 -3 68 -10 131 -14 140 -15 28 -85 43 -146 31z m76 -285 c-61
-51 -132 20 -81 81 9 11 35 30 57 40 l40 19 3 -61 c3 -54 0 -64 -19 -79z"/>
<path d="M14495 1116 c-65 -29 -95 -84 -95 -174 1 -133 115 -214 210 -149 39
26 73 78 68 104 -3 14 -8 11 -23 -15 -27 -45 -79 -61 -127 -38 -39 19 -63 54
-73 109 l-7 37 116 0 c114 0 116 0 116 23 0 35 -38 87 -75 103 -42 17 -71 17
-110 0z m79 -37 c15 -12 26 -30 26 -45 0 -23 -2 -24 -76 -24 -73 0 -75 1 -69
23 8 28 51 67 74 67 10 0 30 -9 45 -21z"/>
<path d="M11897 1113 c-4 -3 3 -11 15 -17 16 -8 38 -53 82 -169 34 -86 64
-157 69 -157 4 0 16 19 26 43 11 23 32 71 49 106 l29 64 41 -104 c22 -57 45
-105 50 -107 5 -1 37 69 71 157 34 88 69 162 77 165 31 12 12 26 -36 26 -27 0
-50 -4 -50 -10 0 -5 7 -10 15 -10 8 0 15 -9 15 -19 0 -20 -58 -180 -70 -194
-9 -11 -83 180 -76 198 3 8 12 15 21 15 8 0 15 5 15 10 0 6 -33 10 -80 10 -47
0 -80 -4 -80 -10 0 -5 6 -10 13 -10 18 0 43 -28 52 -58 8 -26 -53 -179 -65
-165 -13 15 -70 179 -70 201 0 13 6 22 16 22 8 0 12 5 9 10 -7 11 -128 14
-138 3z"/>
<path d="M14010 1111 c0 -5 9 -12 19 -16 13 -4 40 -55 87 -165 38 -88 73 -159
78 -157 6 2 39 75 76 163 45 109 71 160 83 162 38 8 13 22 -38 22 -30 0 -55
-4 -55 -10 0 -5 6 -10 14 -10 8 0 17 -4 20 -8 2 -4 -15 -57 -38 -116 -24 -60
-46 -105 -49 -99 -4 6 -22 48 -42 94 -38 90 -44 129 -20 129 8 0 15 5 15 10 0
6 -32 10 -75 10 -41 0 -75 -4 -75 -9z"/>
<path d="M2174 179 c-10 -17 13 -36 27 -22 12 12 4 33 -11 33 -5 0 -12 -5 -16
-11z"/>
<path d="M2979 178 c-14 -5 -32 -21 -38 -36 l-13 -27 24 23 c27 25 48 28 66
10 25 -25 11 -79 -31 -125 -11 -13 -16 -23 -11 -22 5 0 26 21 47 45 65 79 39
160 -44 132z"/>
<path d="M3355 178 c-37 -10 -62 -34 -75 -73 -15 -45 -1 -99 27 -103 19 -3 20
0 13 32 -16 70 18 136 69 136 31 0 42 -7 64 -40 l17 -24 0 39 0 40 -44 0 c-25
0 -57 -3 -71 -7z"/>
<path d="M4685 180 c-4 -6 -3 -16 3 -22 6 -6 12 -6 17 2 4 6 3 16 -3 22 -6 6
-12 6 -17 -2z"/>
<path d="M5256 180 c-14 -4 -16 -9 -8 -14 8 -5 12 -36 12 -87 0 -64 3 -79 15
-79 12 0 15 17 15 89 0 50 -3 92 -7 94 -5 3 -17 1 -27 -3z"/>
<path d="M5604 179 c-10 -17 13 -36 27 -22 12 12 4 33 -11 33 -5 0 -12 -5 -16
-11z"/>
<path d="M6370 170 c-11 -11 -20 -29 -20 -39 0 -11 -8 -22 -17 -24 -17 -4 -17
-5 0 -6 14 -1 17 -10 17 -51 0 -38 4 -50 15 -50 11 0 15 12 15 49 0 43 3 50
23 54 l22 4 -22 2 c-18 1 -23 7 -23 29 0 38 9 46 32 25 20 -18 34 -12 25 12
-9 21 -43 19 -67 -5z"/>
<path d="M6572 178 c-27 -13 -38 -49 -23 -76 6 -11 27 -30 46 -42 19 -12 40
-30 45 -41 14 -25 40 -24 40 1 0 23 -27 53 -68 74 -35 18 -47 43 -31 62 18 22
46 17 68 -12 l21 -27 0 32 c0 26 -4 31 -24 31 -13 0 -30 2 -38 4 -7 3 -23 0
-36 -6z"/>
<path d="M7530 181 c-17 -5 -21 -9 -12 -15 8 -5 12 -34 12 -87 0 -64 3 -79 15
-79 12 0 15 17 15 95 0 52 -1 95 -2 94 -2 -1 -14 -4 -28 -8z"/>
<path d="M7765 176 c-43 -19 -66 -49 -72 -94 -6 -46 10 -82 37 -82 17 0 18 3
8 30 -35 103 64 187 126 108 l26 -33 0 38 c0 34 -2 37 -27 37 -16 0 -37 2 -48
5 -11 3 -33 -1 -50 -9z"/>
<path d="M8770 180 c-17 -4 -21 -8 -12 -14 8 -5 12 -34 12 -87 0 -62 3 -79 14
-79 10 0 16 14 18 42 3 38 6 43 28 43 22 0 25 -5 28 -42 4 -57 32 -61 32 -5 0
54 -19 77 -58 69 -30 -6 -31 -6 -34 36 -3 40 -5 43 -28 37z"/>
<path d="M9260 181 c-17 -5 -21 -9 -12 -15 6 -4 12 -18 12 -32 0 -20 -5 -24
-30 -24 -39 0 -70 -34 -70 -77 0 -25 4 -33 18 -33 13 0 17 9 17 41 0 45 20 67
49 56 11 -5 16 -19 16 -52 0 -33 4 -45 15 -45 12 0 15 17 15 95 0 52 -1 95 -2
94 -2 -1 -14 -4 -28 -8z"/>
<path d="M9816 181 c-14 -5 -16 -10 -8 -15 7 -4 12 -20 12 -35 0 -25 -3 -27
-35 -23 -30 4 -37 0 -55 -29 -24 -40 -23 -72 4 -77 15 -3 18 0 12 21 -8 35 9
77 32 77 28 0 42 -20 42 -62 0 -27 4 -38 15 -38 12 0 15 17 15 95 0 52 -3 95
-7 94 -5 0 -17 -4 -27 -8z"/>
<path d="M10585 180 c-7 -12 2 -30 16 -30 5 0 9 9 9 20 0 21 -15 27 -25 10z"/>
<path d="M12310 170 c-11 -11 -20 -29 -20 -39 0 -11 -8 -22 -17 -24 -17 -4
-17 -5 0 -6 14 -1 17 -10 17 -51 0 -38 4 -50 15 -50 11 0 15 12 15 49 0 43 3
50 23 54 l22 4 -22 2 c-18 1 -23 7 -23 29 0 38 9 46 32 25 20 -18 34 -12 25
12 -9 21 -43 19 -67 -5z"/>
<path d="M13085 178 c-37 -10 -62 -34 -75 -73 -15 -45 -1 -99 27 -103 19 -3
20 0 13 32 -16 70 18 136 69 136 31 0 42 -7 64 -40 l17 -24 0 39 0 40 -44 0
c-25 0 -57 -3 -71 -7z"/>
<path d="M13247 182 c-12 -2 -16 -9 -13 -19 3 -8 6 -48 6 -89 0 -58 3 -74 14
-74 10 0 16 14 18 42 3 38 6 43 28 43 22 0 25 -5 28 -42 2 -29 8 -43 18 -43
18 0 20 80 2 98 -16 16 -55 15 -65 0 -5 -8 -10 7 -13 37 -4 42 -8 50 -23 47z"/>
<path d="M13817 182 c-12 -2 -16 -9 -13 -19 3 -8 6 -48 6 -89 0 -59 3 -74 15
-74 11 0 15 11 15 40 0 70 62 67 68 -4 2 -22 8 -36 16 -36 21 0 26 40 11 77
-11 27 -19 33 -44 33 -16 0 -33 -6 -38 -12 -5 -8 -10 7 -13 37 -4 42 -8 50
-23 47z"/>
<path d="M1978 173 c8 -3 12 -31 12 -89 0 -77 2 -84 20 -84 16 0 20 7 20 35 0
33 2 35 35 35 22 0 38 -6 44 -17 8 -15 10 -11 11 20 0 35 -1 37 -16 23 -8 -9
-29 -16 -45 -16 -29 0 -30 1 -27 43 3 35 7 43 27 45 35 5 71 -7 71 -24 0 -8 4
-13 9 -10 5 3 7 15 4 26 -5 18 -13 20 -92 19 -47 0 -80 -3 -73 -6z"/>
<path d="M8551 148 c0 -30 1 -31 9 -10 7 16 18 22 40 22 l30 0 0 -80 c0 -64 3
-80 15 -80 12 0 15 16 15 80 l0 80 28 0 c20 0 32 -7 40 -22 10 -22 11 -21 11
10 l1 32 -95 0 -95 0 1 -32z"/>
<path d="M14311 148 c0 -33 0 -33 16 -10 9 12 26 22 39 22 23 0 24 -2 24 -80
0 -73 2 -80 20 -80 18 0 20 7 20 80 0 78 1 80 25 80 13 0 28 -8 34 -17 12 -23
22 -13 14 15 -5 21 -11 22 -99 22 l-94 0 1 -32z"/>
<path d="M4590 127 c-20 -29 -16 -127 6 -127 10 0 14 13 14 49 0 43 3 50 23
54 22 4 22 4 0 6 -13 0 -23 9 -25 20 -3 18 -4 18 -18 -2z"/>
<path d="M9491 126 c-14 -14 -19 -26 -13 -26 8 0 12 -18 12 -50 0 -38 4 -50
15 -50 11 0 15 12 15 49 0 39 4 51 18 54 15 4 15 5 0 6 -9 0 -18 10 -20 22 -3
20 -4 20 -27 -5z"/>
<path d="M2170 100 c-10 -6 -11 -10 -2 -10 8 0 12 -16 12 -45 0 -33 4 -45 15
-45 12 0 15 13 15 55 0 56 -8 66 -40 45z"/>
<path d="M2277 92 c-21 -23 -22 -46 -2 -62 8 -7 12 -16 9 -21 -3 -5 10 -6 28
-3 40 7 71 40 63 65 -5 14 -1 19 12 20 13 1 11 3 -7 9 -44 14 -86 11 -103 -8z
m65 -16 c13 -29 5 -56 -17 -56 -19 0 -40 43 -32 64 9 24 36 19 49 -8z"/>
<path d="M2418 103 c7 -3 12 -24 12 -54 0 -37 4 -49 15 -49 12 0 15 13 15 55
0 54 -1 55 -27 54 -16 0 -22 -3 -15 -6z"/>
<path d="M2503 99 c12 -7 17 -23 17 -54 0 -33 4 -45 15 -45 12 0 15 13 15 55
l0 55 -32 0 c-27 -1 -30 -2 -15 -11z"/>
<path d="M2590 100 c-9 -5 -9 -9 -1 -14 6 -4 11 -25 11 -47 0 -57 28 -54 32 4
3 37 6 42 26 40 13 -2 22 3 22 11 0 16 -67 20 -90 6z"/>
<path d="M2710 83 c-24 -31 -23 -76 1 -81 13 -2 15 3 12 23 -5 24 -4 25 46 25
55 0 66 14 33 43 -28 26 -67 21 -92 -10z m68 -6 c3 -13 -3 -17 -27 -17 -33 0
-39 8 -19 28 17 17 42 11 46 -11z"/>
<path d="M3500 100 c-10 -6 -11 -10 -2 -10 8 0 12 -16 12 -45 0 -61 26 -63 32
-2 7 64 -5 81 -42 57z"/>
<path d="M3556 101 c-3 -5 1 -12 10 -15 25 -10 34 -7 34 9 0 16 -35 21 -44 6z"/>
<path d="M3630 90 c-27 -27 -28 -90 -2 -90 15 0 17 6 14 35 -5 39 11 65 39 65
23 0 39 -29 39 -69 0 -21 5 -31 15 -31 23 0 20 72 -3 93 -25 23 -78 21 -102
-3z"/>
<path d="M3790 95 c-19 -23 0 -56 43 -80 43 -23 62 -11 27 16 -54 43 -61 50
-55 59 10 16 43 11 54 -7 9 -16 10 -16 11 5 0 18 -5 22 -34 22 -18 0 -39 -7
-46 -15z"/>
<path d="M3920 95 c-19 -23 0 -56 43 -80 43 -23 62 -11 27 16 -54 43 -61 50
-55 59 10 16 43 11 54 -7 9 -16 10 -16 11 5 0 18 -5 22 -34 22 -18 0 -39 -7
-46 -15z"/>
<path d="M4160 95 c-19 -23 0 -56 43 -80 43 -23 62 -11 27 16 -54 43 -61 50
-55 59 10 16 43 11 54 -7 9 -16 10 -16 11 5 0 18 -5 22 -34 22 -18 0 -39 -7
-46 -15z"/>
<path d="M4290 83 c-24 -31 -23 -76 1 -81 13 -2 15 3 12 23 -5 24 -4 25 46 25
55 0 66 14 33 43 -28 26 -67 21 -92 -10z m68 -6 c3 -13 -3 -17 -27 -17 -33 0
-39 8 -19 28 17 17 42 11 46 -11z"/>
<path d="M4441 84 c-27 -34 -28 -84 -3 -84 15 0 17 6 14 35 -2 19 1 42 8 50
18 22 47 18 54 -7 4 -17 8 -20 17 -11 21 21 2 43 -35 43 -25 0 -40 -7 -55 -26z"/>
<path d="M4675 100 c-11 -5 -14 -9 -7 -9 8 -1 12 -17 12 -46 0 -33 4 -45 15
-45 12 0 15 13 15 55 0 57 -2 59 -35 45z"/>
<path d="M4778 93 c-32 -36 -33 -93 -2 -93 8 0 14 16 16 47 3 40 6 48 25 51
26 4 53 -31 53 -70 0 -18 5 -28 15 -28 23 0 19 66 -5 90 -25 25 -81 27 -102 3z"/>
<path d="M4930 100 c-10 -6 -11 -10 -2 -10 8 0 12 -16 12 -45 0 -33 4 -45 14
-45 10 0 16 14 18 43 2 35 7 43 26 45 20 3 22 -1 22 -42 0 -35 4 -46 16 -46
12 0 14 10 12 53 -3 46 -6 52 -26 55 -13 2 -30 -2 -38 -8 -10 -9 -14 -9 -14
-1 0 13 -20 14 -40 1z"/>
<path d="M5113 103 c-16 -6 -17 -43 -2 -43 6 0 13 9 16 20 7 27 43 27 43 0 0
-11 -12 -26 -28 -34 -37 -19 -61 -46 -41 -46 8 0 20 9 27 20 7 11 19 20 27 20
8 0 15 -9 15 -20 0 -11 7 -20 15 -20 19 0 21 80 3 98 -12 12 -52 15 -75 5z"/>
<path d="M5449 55 c34 -74 57 -74 92 0 l25 55 -25 -1 c-14 0 -21 -3 -14 -5 8
-4 7 -17 -4 -50 -8 -24 -17 -44 -19 -44 -9 0 -34 75 -30 87 4 9 -4 13 -23 13
l-28 0 26 -55z"/>
<path d="M5600 100 c-10 -6 -11 -10 -2 -10 8 0 12 -16 12 -45 0 -33 4 -45 15
-45 12 0 15 13 15 55 0 56 -8 66 -40 45z"/>
<path d="M5696 88 c-22 -30 -21 -88 0 -88 12 0 15 6 10 25 -6 24 -5 25 44 25
41 0 50 3 50 18 0 45 -76 60 -104 20z m62 0 c19 -19 14 -28 -18 -28 -18 0 -30
5 -30 13 0 28 27 36 48 15z"/>
<path d="M5850 60 c11 -28 20 -53 20 -55 0 -3 7 -5 15 -5 18 0 18 -2 0 50 -8
23 -12 46 -9 51 3 5 -6 9 -20 9 l-26 0 20 -50z"/>
<path d="M5920 89 c8 -15 8 -29 1 -51 -13 -38 -7 -48 10 -17 l12 23 8 -23 c15
-39 48 -23 75 37 22 50 22 52 4 52 -12 0 -17 -5 -14 -13 2 -7 -3 -31 -12 -53
l-17 -39 -14 34 c-8 19 -12 43 -10 53 4 14 -1 18 -24 18 -27 0 -29 -2 -19 -21z"/>
<path d="M6180 90 c-27 -27 -28 -90 -2 -90 15 0 17 6 14 35 -5 39 11 65 39 65
23 0 39 -29 39 -69 0 -21 5 -31 15 -31 23 0 20 72 -3 93 -25 23 -78 21 -102
-3z"/>
<path d="M6730 95 c-10 -12 -10 -19 -1 -28 9 -9 13 -6 18 11 4 16 12 22 27 20
36 -5 31 -35 -10 -55 -38 -18 -57 -43 -32 -43 7 0 19 9 26 20 16 26 42 26 42
0 0 -11 7 -20 15 -20 18 0 21 60 5 91 -13 24 -72 26 -90 4z"/>
<path d="M6864 99 c-3 -5 0 -9 5 -9 6 0 11 -20 11 -45 0 -33 4 -45 14 -45 10
0 16 14 18 43 3 37 6 42 28 42 22 0 25 -5 28 -42 4 -59 30 -59 34 -1 2 33 8
44 22 46 24 5 36 -14 36 -55 0 -23 5 -33 15 -33 18 0 20 45 5 84 -10 28 -37
34 -70 16 -11 -6 -21 -6 -24 -1 -8 12 -115 11 -122 0z"/>
<path d="M7143 55 c18 -44 27 -55 44 -55 13 0 27 10 34 22 l12 23 10 -23 c6
-13 19 -22 31 -22 16 0 26 13 43 55 20 53 20 55 2 55 -11 0 -16 -5 -13 -14 3
-7 -2 -31 -11 -52 l-17 -39 -14 40 c-8 22 -12 45 -10 52 4 9 -5 13 -26 13 -25
0 -29 -3 -20 -12 16 -16 15 -50 -1 -72 -12 -16 -15 -14 -30 25 -13 34 -14 45
-4 51 7 5 0 8 -20 8 l-31 0 21 -55z"/>
<path d="M7376 88 c-22 -30 -21 -88 0 -88 12 0 15 6 10 25 -6 24 -5 25 44 25
41 0 50 3 50 18 0 45 -76 60 -104 20z m62 0 c19 -19 14 -28 -18 -28 -18 0 -30
5 -30 13 0 28 27 36 48 15z"/>
<path d="M7930 95 c-10 -12 -10 -19 -1 -28 9 -9 13 -6 18 11 4 16 12 22 27 20
36 -5 31 -35 -10 -55 -38 -18 -57 -43 -32 -43 7 0 19 9 26 20 16 26 42 26 42
0 0 -11 7 -20 15 -20 18 0 21 60 5 91 -13 24 -72 26 -90 4z"/>
<path d="M8089 56 c20 -42 31 -55 49 -55 16 -1 26 7 33 27 6 15 16 39 24 55
12 25 12 27 -6 27 -11 0 -18 -4 -14 -9 3 -5 -2 -29 -12 -52 l-17 -43 -18 39
c-10 22 -16 46 -13 53 3 8 -6 12 -24 12 l-28 0 26 -54z"/>
<path d="M8247 93 c-25 -29 -26 -93 -2 -93 11 0 14 7 9 25 -6 24 -5 25 45 25
53 0 59 6 41 41 -14 25 -71 26 -93 2z m61 -16 c3 -13 -3 -17 -27 -17 -33 0
-39 8 -19 28 17 17 42 11 46 -11z"/>
<path d="M8954 102 c-35 -23 -47 -102 -15 -102 14 0 17 6 13 25 -4 24 -2 25
47 25 55 0 59 4 35 38 -15 22 -57 30 -80 14z m54 -24 c3 -14 -3 -18 -27 -18
-29 0 -41 17 -24 34 13 13 48 1 51 -16z"/>
<path d="M9353 103 c-16 -6 -17 -43 -2 -43 6 0 13 9 16 20 7 27 43 27 43 0 0
-11 -12 -26 -28 -34 -37 -19 -61 -46 -41 -46 8 0 20 9 27 20 7 11 19 20 27 20
8 0 15 -9 15 -20 0 -11 7 -20 15 -20 19 0 21 80 3 98 -12 12 -52 15 -75 5z"/>
<path d="M9587 93 c-25 -29 -26 -93 -2 -93 11 0 14 7 9 25 -6 24 -5 25 45 25
53 0 59 6 41 41 -14 25 -71 26 -93 2z m61 -16 c3 -13 -3 -17 -27 -17 -33 0
-39 8 -19 28 17 17 42 11 46 -11z"/>
<path d="M9990 95 c-19 -23 0 -56 43 -80 43 -23 62 -11 27 16 -54 43 -61 50
-55 59 10 16 43 11 54 -7 9 -16 10 -16 11 5 0 18 -5 22 -34 22 -18 0 -39 -7
-46 -15z"/>
<path d="M10110 100 c-9 -5 -9 -9 -1 -14 6 -4 11 -25 11 -47 0 -57 28 -54 32
3 2 33 7 44 22 47 25 4 46 -24 46 -62 0 -18 4 -27 13 -25 19 7 20 56 3 83 -14
21 -24 24 -65 24 -27 -1 -54 -5 -61 -9z"/>
<path d="M10286 88 c-22 -30 -21 -88 0 -88 12 0 15 6 10 25 -6 24 -5 25 44 25
41 0 50 3 50 18 0 45 -76 60 -104 20z m62 0 c19 -19 14 -28 -18 -28 -18 0 -30
5 -30 13 0 28 27 36 48 15z"/>
<path d="M10447 98 c-34 -26 -42 -98 -10 -98 11 0 14 6 9 24 -15 59 39 104 65
55 8 -15 14 -18 22 -10 29 29 -50 56 -86 29z"/>
<path d="M10576 101 c-18 -7 -18 -8 -3 -14 12 -4 17 -18 17 -47 0 -29 4 -40
15 -40 12 0 15 13 15 55 0 57 -5 62 -44 46z"/>
<path d="M10660 100 c-10 -6 -11 -10 -2 -10 8 0 12 -16 12 -45 0 -38 3 -45 20
-45 17 0 20 7 20 45 0 41 2 45 25 45 23 0 25 -4 25 -45 0 -33 4 -45 15 -45 10
0 15 10 15 29 0 45 10 61 36 61 22 0 24 -4 24 -45 0 -33 4 -45 15 -45 11 0 15
11 15 39 0 22 -3 46 -6 55 -7 18 -59 22 -69 6 -4 -6 -13 -5 -25 2 -15 10 -27
10 -50 1 -16 -6 -30 -7 -30 -2 0 12 -21 11 -40 -1z"/>
<path d="M10937 93 c-25 -29 -26 -93 -2 -93 11 0 14 7 9 25 -6 24 -5 25 45 25
53 0 59 6 41 41 -14 25 -71 26 -93 2z m61 -16 c3 -13 -3 -17 -27 -17 -33 0
-39 8 -19 28 17 17 42 11 46 -11z"/>
<path d="M11070 100 c-10 -6 -11 -10 -2 -10 8 0 12 -16 12 -45 0 -33 4 -45 14
-45 10 0 16 14 18 43 3 37 6 42 28 42 22 0 25 -5 28 -42 2 -29 8 -43 18 -43
17 0 20 61 4 91 -12 21 -50 25 -68 7 -9 -9 -12 -9 -12 0 0 14 -19 15 -40 2z"/>
<path d="M11250 95 c-6 -8 -10 -22 -8 -32 3 -19 63 -63 84 -63 26 0 14 20 -27
45 -22 15 -39 31 -36 38 6 20 38 20 52 0 14 -17 14 -17 15 5 0 18 -5 22 -34
22 -18 0 -39 -7 -46 -15z"/>
<path d="M11471 84 c-27 -34 -28 -84 -3 -84 15 0 17 6 14 35 -2 19 1 42 8 50
18 22 47 18 54 -7 4 -17 8 -20 17 -11 21 21 2 43 -35 43 -25 0 -40 -7 -55 -26z"/>
<path d="M11621 91 c-28 -28 -29 -91 -2 -91 17 0 19 5 14 35 -6 39 9 65 38 65
23 0 39 -29 39 -69 0 -39 27 -42 36 -5 16 63 -79 111 -125 65z"/>
<path d="M11770 100 c-10 -6 -11 -10 -2 -10 8 0 12 -16 12 -45 0 -38 3 -45 20
-45 17 0 20 7 20 45 0 41 2 45 25 45 23 0 25 -4 25 -45 0 -33 4 -45 15 -45 10
0 15 10 15 29 0 45 10 61 36 61 22 0 24 -4 24 -45 0 -33 4 -45 15 -45 11 0 15
11 15 39 0 22 -3 46 -6 55 -7 18 -59 22 -69 6 -4 -6 -13 -5 -25 2 -15 10 -27
10 -50 1 -16 -6 -30 -7 -30 -2 0 12 -21 11 -40 -1z"/>
<path d="M12047 93 c-25 -29 -26 -93 -2 -93 11 0 14 7 9 25 -6 24 -5 25 45 25
53 0 59 6 41 41 -14 25 -71 26 -93 2z m61 -16 c3 -13 -3 -17 -27 -17 -33 0
-39 8 -19 28 17 17 42 11 46 -11z"/>
<path d="M12380 100 c-10 -6 -11 -10 -2 -10 8 0 12 -16 12 -45 0 -61 26 -63
32 -2 7 64 -5 81 -42 57z"/>
<path d="M12436 101 c-3 -5 1 -12 10 -15 25 -10 34 -7 34 9 0 16 -35 21 -44 6z"/>
<path d="M12510 90 c-27 -27 -28 -90 -2 -90 15 0 17 6 14 35 -5 39 11 65 39
65 23 0 39 -29 39 -69 0 -21 5 -31 15 -31 23 0 20 72 -3 93 -25 23 -78 21
-102 -3z"/>
<path d="M12660 100 c-10 -6 -11 -10 -2 -10 8 0 12 -16 12 -45 0 -33 4 -45 14
-45 10 0 16 14 18 43 3 38 6 42 31 45 26 3 27 2 27 -42 0 -33 4 -46 14 -46 10
0 16 14 18 43 3 38 6 42 31 45 26 3 27 2 27 -42 0 -34 4 -46 15 -46 19 0 21
80 3 98 -16 16 -50 15 -67 0 -11 -10 -14 -10 -18 0 -6 15 -55 16 -71 0 -9 -9
-12 -9 -12 0 0 14 -19 15 -40 2z"/>
<path d="M13410 95 c-10 -12 -10 -19 -1 -28 9 -9 13 -6 18 11 4 16 12 22 27
20 36 -5 31 -35 -10 -55 -38 -18 -57 -43 -32 -43 7 0 19 9 26 20 16 26 42 26
42 0 0 -11 7 -20 15 -20 18 0 21 60 5 91 -13 24 -72 26 -90 4z"/>
<path d="M13544 99 c-3 -5 0 -9 5 -9 6 0 11 -20 11 -45 0 -33 4 -45 14 -45 10
0 16 14 18 43 3 37 6 42 28 42 22 0 25 -5 28 -42 4 -59 30 -59 34 -1 2 33 8
44 22 46 24 5 36 -14 36 -55 0 -23 5 -33 15 -33 18 0 20 45 5 84 -10 28 -37
34 -70 16 -11 -6 -21 -6 -24 -1 -8 12 -115 11 -122 0z"/>
<path d="M13987 93 c-25 -29 -26 -93 -2 -93 11 0 14 7 9 25 -6 24 -5 25 45 25
53 0 59 6 41 41 -14 25 -71 26 -93 2z m61 -16 c3 -13 -3 -17 -27 -17 -33 0
-39 8 -19 28 17 17 42 11 46 -11z"/>
<path d="M14120 100 c-10 -6 -11 -10 -2 -10 8 0 12 -16 12 -45 0 -33 4 -45 14
-45 10 0 16 14 18 43 3 35 6 42 25 42 28 0 40 13 19 21 -9 3 -23 1 -31 -6 -10
-9 -15 -9 -15 -1 0 13 -20 14 -40 1z"/>
<path d="M14520 60 c11 -28 20 -53 20 -55 0 -3 7 -5 15 -5 18 0 18 -2 0 50 -8
23 -12 46 -9 51 3 5 -6 9 -20 9 l-26 0 20 -50z"/>
<path d="M14590 89 c8 -15 8 -29 1 -51 -13 -38 -7 -48 10 -17 l12 23 8 -23
c15 -39 48 -23 75 37 22 50 22 52 4 52 -12 0 -17 -5 -14 -13 2 -7 -3 -31 -12
-53 l-17 -39 -14 34 c-8 19 -12 43 -10 53 4 14 -1 18 -24 18 -27 0 -29 -2 -19
-21z"/>
<path d="M14760 90 c-27 -27 -28 -90 -2 -90 15 0 17 6 14 35 -5 39 11 65 39
65 23 0 39 -29 39 -69 0 -21 5 -31 15 -31 23 0 20 72 -3 93 -25 23 -78 21
-102 -3z"/>
<path d="M4037 44 c-13 -14 6 -24 44 -24 28 0 39 4 39 15 0 11 -11 15 -38 15
-21 0 -42 -3 -45 -6z"/>
<path d="M6530 16 c0 -9 5 -16 10 -16 6 0 10 4 10 9 0 6 -4 13 -10 16 -5 3
-10 -1 -10 -9z"/>
</g>
</svg>
