<?xml version="1.0" standalone="no"?>
<!DOCTYPE svg PUBLIC "-//W3C//DTD SVG 20010904//EN"
 "http://www.w3.org/TR/2001/REC-SVG-20010904/DTD/svg10.dtd">
<svg version="1.0" xmlns="http://www.w3.org/2000/svg"
 width="1518.020162pt" height="302.031625pt" viewBox="0 0 1518.020162 302.031625"
 preserveAspectRatio="xMidYMid meet">
<metadata>
Created by potrace 1.16, written by Peter Selinger 2001-2019
</metadata>
<g transform="translate(-43.479838,360.125802) scale(0.100000,-0.100000)"
fill="#000000" stroke="none">
<path d="M4410 3582 c0 -10 16 -50 35 -90 19 -40 32 -72 30 -72 -2 0 -15 4
-29 10 -36 13 -49 6 -84 -48 -17 -26 -57 -74 -89 -108 -61 -64 -55 -61 -225
-99 -89 -21 -168 -15 -228 15 -22 11 -49 20 -61 20 -12 0 -54 18 -93 39 -78
43 -234 101 -272 101 -13 0 -43 5 -68 12 -56 15 -97 -1 -125 -48 -23 -38 -85
-81 -156 -106 -54 -19 -178 -24 -218 -9 -14 5 -50 40 -80 78 -31 37 -80 94
-109 126 -47 52 -57 57 -88 55 -29 -3 -38 -9 -52 -39 -34 -74 -49 -173 -59
-388 -6 -146 -13 -217 -21 -222 -9 -6 -9 -11 0 -21 7 -9 9 -29 5 -50 -5 -34
-7 -36 -29 -26 -21 10 -29 21 -21 31 1 2 -4 11 -12 21 -8 9 -11 19 -8 22 3 3
10 -4 17 -15 10 -19 40 -30 40 -15 0 3 -25 32 -57 65 -31 32 -66 72 -77 88
-32 45 -58 56 -103 43 -37 -11 -141 -91 -231 -178 -24 -23 -55 -44 -69 -47
-29 -5 -112 4 -248 28 -137 24 -343 37 -419 26 -67 -10 -173 -47 -229 -82 -18
-10 -45 -26 -62 -33 -40 -20 -76 -55 -127 -124 -52 -72 -65 -84 -125 -121 -27
-17 -54 -41 -60 -53 -14 -31 -49 -124 -63 -169 -6 -21 -29 -63 -51 -94 -47
-68 -64 -138 -48 -198 12 -45 46 -93 134 -185 32 -34 64 -75 71 -90 18 -42
260 -208 414 -285 62 -31 69 -32 170 -29 115 3 161 11 168 30 3 10 -25 11
-122 6 -165 -9 -190 0 -448 169 -84 55 -126 91 -195 169 -161 181 -173 202
-173 294 0 32 9 54 45 105 25 35 52 88 61 117 36 121 60 158 135 205 41 27 61
48 142 157 18 25 53 55 77 68 25 13 57 32 72 43 69 49 233 86 361 81 36 -2 37
-3 37 -38 0 -23 4 -33 11 -28 6 3 8 17 5 30 -9 34 9 30 24 -6 7 -16 17 -30 22
-30 6 0 7 8 3 18 -18 43 2 65 43 46 9 -4 22 -8 27 -9 136 -16 155 -25 155 -76
0 -16 5 -29 10 -29 6 0 10 16 10 35 0 38 7 41 68 29 23 -5 30 -11 29 -28 -1
-11 3 -21 8 -21 6 0 9 10 8 23 -2 19 3 22 36 22 72 0 95 10 132 59 20 26 71
75 113 109 97 78 118 80 172 15 60 -72 63 -77 64 -100 0 -33 -14 -28 -45 15
-37 49 -54 62 -83 62 -28 0 -117 -73 -138 -113 -8 -15 -22 -36 -30 -45 -8 -9
-23 -28 -34 -42 -18 -24 -18 -25 -39 -6 -12 11 -21 14 -21 8 0 -6 5 -14 10
-17 20 -12 10 -35 -14 -35 -14 0 -28 -5 -31 -10 -4 -6 -12 -7 -18 -3 -7 4 -21
8 -32 9 -11 1 -40 2 -65 4 -25 1 -52 0 -60 -3 -8 -4 -31 -3 -50 1 -33 7 -35
11 -40 54 -8 66 -20 72 -20 10 0 -46 -2 -52 -21 -52 -15 0 -19 4 -14 19 7 23
-3 71 -15 71 -5 0 -7 -15 -4 -32 3 -18 1 -39 -5 -47 -13 -20 -42 -6 -34 15 5
14 3 16 -13 9 -22 -11 -71 -11 -175 0 -56 6 -82 4 -100 -6 -13 -7 -67 -16
-120 -19 -98 -7 -159 -29 -159 -57 0 -17 10 -16 50 4 19 9 67 18 108 21 75 5
75 5 69 -19 -8 -36 -104 -304 -127 -354 -11 -24 -20 -51 -20 -60 0 -9 -7 -29
-15 -44 -23 -46 -43 -111 -36 -116 7 -4 39 69 96 220 14 39 30 79 35 90 5 11
16 45 25 75 8 30 29 92 46 137 27 70 35 83 62 92 43 15 101 14 94 -1 -102
-236 -131 -312 -233 -603 -9 -27 -27 -72 -39 -100 -30 -66 -82 -229 -89 -280
l-6 -40 15 30 c8 17 14 37 15 46 0 22 67 207 89 249 10 19 26 60 36 90 10 30
21 60 25 65 4 6 24 58 44 117 49 147 101 278 142 360 29 57 38 68 59 68 14 0
25 -1 25 -3 0 -2 -21 -41 -46 -88 -63 -116 -122 -257 -154 -369 -32 -109 -56
-176 -98 -276 -26 -63 -50 -162 -82 -348 -13 -75 -13 -83 0 -70 5 5 16 50 24
99 22 133 53 250 91 340 54 129 93 237 101 280 4 22 13 49 19 60 7 11 18 38
25 60 7 22 39 95 71 163 33 68 59 130 59 138 0 15 27 19 49 5 11 -7 11 -12 -2
-32 -8 -13 -20 -42 -27 -64 -7 -22 -28 -68 -47 -102 -18 -34 -33 -74 -33 -88
0 -14 -4 -25 -10 -25 -14 0 -31 -37 -45 -99 -7 -31 -29 -97 -49 -147 -19 -49
-47 -135 -61 -190 -15 -54 -35 -119 -46 -144 -22 -50 -40 -158 -28 -166 4 -2
11 12 14 33 13 88 102 364 125 387 6 6 10 18 10 29 0 10 7 41 16 68 15 47 19
50 44 44 25 -6 28 -2 58 66 38 85 34 108 -13 73 -17 -12 -17 -16 -6 -24 13 -7
12 -14 -4 -49 -10 -23 -24 -41 -32 -41 -17 0 -17 3 7 79 10 35 25 68 32 72 7
5 13 19 13 31 0 16 7 24 22 26 19 3 21 6 11 22 -16 25 6 52 36 44 25 -6 54 20
53 49 0 15 -4 14 -21 -7 -15 -18 -25 -23 -35 -17 -11 7 -8 20 15 72 35 81 41
89 70 89 31 0 30 -15 -1 -46 -25 -25 -34 -64 -15 -64 6 0 16 12 22 28 18 42
49 72 74 72 34 0 39 -19 15 -48 -31 -39 -141 -204 -141 -213 0 -4 -9 -9 -19
-12 -15 -3 -18 -11 -14 -26 5 -22 -33 -106 -64 -143 -8 -9 -13 -27 -11 -40 4
-22 5 -22 13 -3 21 48 68 115 81 115 11 0 13 7 8 27 -6 22 -4 25 11 19 14 -5
16 -2 12 14 -3 14 1 24 15 31 14 8 17 14 9 23 -14 17 10 39 33 30 9 -3 16 -7
16 -9 0 -11 -66 -125 -85 -147 -27 -30 -83 -143 -95 -191 -4 -17 -24 -77 -44
-132 -20 -55 -45 -124 -56 -153 -22 -61 -38 -212 -23 -212 6 0 13 37 16 83 6
80 55 245 89 300 21 33 46 98 52 134 8 46 86 172 102 166 21 -8 17 -31 -6 -38
-14 -5 -19 -12 -15 -24 8 -26 -4 -51 -22 -44 -12 5 -14 1 -9 -13 3 -11 -3 -52
-14 -92 -22 -80 -24 -92 -11 -92 5 0 25 48 45 108 35 103 84 210 113 243 12
15 9 29 -8 29 -4 0 -14 -12 -21 -27 -13 -28 -48 -44 -48 -23 0 39 193 295 241
321 21 11 99 12 99 2 -1 -5 -28 -28 -61 -53 -57 -42 -76 -61 -157 -154 -30
-36 -40 -56 -26 -56 4 0 23 19 43 42 58 68 79 88 93 88 7 0 18 10 23 23 6 12
20 23 33 25 12 2 22 9 22 15 0 7 23 30 52 52 68 52 107 94 138 146 27 46 131
159 146 159 5 0 15 -4 23 -9 10 -6 -2 -24 -50 -70 -35 -33 -66 -61 -69 -61 -3
0 -18 -19 -33 -42 -15 -24 -44 -56 -64 -72 -21 -17 -45 -38 -53 -49 -23 -29
-71 -77 -131 -132 -30 -28 -66 -66 -81 -85 -15 -19 -28 -29 -28 -22 0 6 -4 12
-10 12 -5 0 -7 -6 -4 -14 3 -8 1 -24 -6 -35 -17 -33 1 -25 44 19 21 22 43 40
47 40 5 0 9 6 9 13 0 19 120 136 145 143 14 4 25 16 28 32 3 15 20 36 37 47
16 11 48 43 69 72 21 29 69 78 105 109 l67 57 29 -29 c15 -16 31 -40 35 -53 7
-21 5 -23 -18 -17 -21 5 -24 3 -20 -14 4 -13 0 -20 -9 -20 -8 0 -19 -9 -24
-19 -12 -26 -88 -106 -158 -165 -39 -33 -63 -47 -76 -43 -16 4 -20 0 -20 -19
0 -13 5 -24 10 -24 18 0 130 97 211 181 55 58 80 78 92 73 13 -5 17 0 17 17 0
38 14 51 43 43 15 -3 27 -10 27 -15 0 -5 7 -9 16 -9 12 0 14 -6 8 -32 -11 -49
-5 -175 13 -245 11 -44 12 -70 6 -90 -5 -15 -7 -70 -4 -121 6 -97 1 -128 -16
-97 -8 14 -11 9 -17 -25 -4 -25 -2 -47 4 -55 18 -22 1 -65 -29 -71 -14 -3 -33
-9 -41 -13 -24 -13 -67 -95 -84 -162 -27 -103 -51 -147 -83 -154 -15 -4 -39
-9 -53 -11 -14 -3 -60 -42 -105 -88 -74 -77 -85 -84 -145 -100 -52 -14 -78
-15 -130 -8 -41 6 -72 6 -83 0 -36 -19 -113 -38 -154 -38 -46 0 -73 -8 -73
-21 0 -16 125 -10 171 8 31 12 76 17 154 18 145 1 204 20 245 80 38 55 116
124 149 131 74 16 82 27 136 185 36 106 49 129 71 129 8 0 32 16 53 35 46 42
64 100 61 197 -1 35 -1 68 0 73 3 16 19 -42 40 -145 62 -298 92 -376 181 -466
27 -27 73 -83 103 -124 64 -90 83 -108 160 -154 72 -43 125 -47 202 -13 89 39
237 162 359 298 63 70 137 123 213 153 32 13 90 42 129 64 80 47 213 102 246
102 34 0 173 56 222 90 23 16 53 43 66 60 13 16 35 43 48 60 14 19 31 66 43
118 11 48 30 121 43 162 33 100 45 196 44 332 -1 79 5 149 21 233 14 76 21
145 18 188 -2 43 0 66 7 64 5 -2 53 -66 105 -143 194 -282 239 -331 368 -391
56 -26 103 -38 205 -53 158 -24 211 -25 265 -6 22 8 62 18 89 21 68 10 188 52
240 85 47 30 136 95 239 175 35 28 112 75 170 105 108 55 178 116 189 162 5
24 43 263 52 332 4 30 2 37 -8 34 -18 -6 -46 -128 -58 -256 -14 -153 -22 -163
-172 -242 -69 -36 -145 -80 -170 -99 -24 -18 -54 -38 -66 -44 -13 -5 -23 -15
-23 -20 0 -5 -9 -7 -20 -4 -14 4 -20 0 -20 -13 0 -26 -28 -46 -42 -32 -18 18
-32 14 -17 -4 11 -14 10 -18 -6 -30 -17 -13 -21 -13 -31 1 -16 22 -22 19 -26
-12 -4 -35 -33 -42 -43 -11 -7 20 -9 18 -12 -14 -3 -30 -9 -38 -24 -38 -12 0
-19 7 -19 19 0 11 -4 23 -10 26 -6 4 -10 -8 -10 -29 0 -26 -5 -36 -20 -41 -26
-8 -40 1 -40 26 0 10 -4 19 -10 19 -5 0 -10 -13 -10 -30 0 -27 -4 -31 -52 -44
-137 -39 -138 -39 -300 -17 -135 19 -162 26 -233 61 -44 22 -92 52 -108 68
-85 85 -138 150 -214 262 -46 69 -108 157 -136 197 -102 141 -187 288 -187
326 0 17 -5 27 -15 27 -8 0 -15 -8 -15 -18z m-1776 -213 c60 -64 61 -66 46
-89 -15 -23 -53 17 -45 48 5 20 3 23 -10 18 -9 -3 -23 1 -31 9 -34 34 -58 -15
-69 -145 -4 -41 -13 -113 -20 -160 -30 -186 -27 -640 4 -699 15 -28 68 -234
76 -296 3 -27 22 -96 41 -152 27 -78 47 -115 82 -157 26 -31 68 -82 94 -113
160 -199 196 -233 249 -233 54 0 220 99 319 189 99 91 196 163 284 210 30 17
63 35 73 41 31 17 345 146 403 165 122 39 156 63 229 158 63 81 102 274 104
517 2 158 5 186 32 287 28 106 29 116 17 190 -15 104 -29 150 -53 174 -25 25
-45 24 -67 -3 -100 -127 -209 -210 -300 -229 -163 -33 -414 -1 -576 75 -153
72 -163 76 -199 76 -50 0 -85 -15 -139 -61 -58 -49 -176 -109 -225 -116 -91
-12 -304 132 -260 176 19 19 39 13 35 -11 -2 -16 3 -23 17 -26 11 -1 46 -15
78 -29 56 -26 60 -27 148 -16 111 15 204 61 246 125 34 51 61 62 107 43 20 -8
49 -15 67 -15 49 0 160 -38 254 -86 47 -24 94 -44 104 -44 10 0 46 -12 82 -26
84 -35 163 -35 285 -1 129 35 153 54 260 200 19 26 43 47 53 47 43 0 116 -58
97 -77 -3 -4 -2 -11 3 -17 18 -22 51 -132 51 -171 0 -47 -26 -200 -37 -218 -4
-6 -10 -97 -14 -202 -5 -126 -13 -209 -23 -245 -9 -30 -30 -109 -46 -175 -39
-152 -47 -173 -84 -213 -58 -62 -176 -121 -291 -146 -74 -17 -237 -89 -305
-135 -14 -10 -44 -23 -67 -29 -66 -19 -157 -87 -246 -184 -145 -158 -339 -288
-431 -288 -84 0 -159 72 -337 327 -91 128 -127 211 -145 333 -13 90 -22 128
-61 260 -9 30 -22 93 -29 140 -15 98 -18 465 -5 555 5 33 12 125 15 205 6 142
13 188 43 263 22 55 49 50 117 -24z m-21 -74 c16 -20 34 -50 42 -68 19 -44 79
-100 145 -133 30 -15 70 -38 89 -52 19 -15 36 -21 40 -15 3 6 35 20 71 33 77
26 119 50 180 100 63 52 82 60 136 60 45 0 105 -24 244 -95 37 -19 171 -45
283 -55 144 -13 262 0 340 38 63 31 180 133 212 185 10 15 24 27 31 27 11 0
13 -7 8 -27 -5 -23 -4 -26 7 -15 20 19 29 14 29 -15 0 -27 -96 -164 -127 -182
-9 -5 -11 -11 -6 -14 9 -6 32 17 117 118 14 16 28 26 31 23 3 -3 9 -37 12 -74
4 -55 0 -91 -21 -175 -22 -92 -26 -128 -26 -261 0 -170 -21 -319 -60 -426 -31
-85 -124 -195 -182 -215 -184 -63 -442 -171 -545 -228 -108 -59 -202 -127
-295 -210 -103 -94 -131 -115 -204 -150 -129 -62 -154 -54 -266 85 -45 55 -90
110 -100 121 -87 97 -119 141 -114 158 3 11 -4 28 -15 40 -19 20 -38 76 -45
127 -9 73 -33 172 -88 370 -34 123 -39 583 -7 684 6 17 13 65 16 106 3 41 11
77 17 81 7 4 7 12 0 26 -13 23 -5 63 12 63 6 0 24 -16 39 -35z m-835 -723 c9
-6 6 -13 -10 -29 -13 -11 -47 -46 -77 -77 -32 -34 -59 -55 -68 -52 -10 4 -13
-1 -11 -17 4 -28 -12 -37 -25 -15 -9 13 -3 28 28 72 22 31 51 72 64 91 19 27
31 35 55 35 17 0 37 -4 44 -8z m652 -533 c0 -11 -4 -17 -10 -14 -5 3 -10 13
-10 21 0 8 5 14 10 14 6 0 10 -9 10 -21z"/>
<path d="M4397 3240 c-9 -11 -17 -24 -17 -29 0 -12 -67 -79 -113 -112 -22 -16
-34 -29 -27 -29 23 0 111 74 146 123 35 49 44 85 11 47z"/>
<path d="M4441 3104 c-13 -15 -17 -24 -10 -22 12 4 46 48 37 48 -2 0 -15 -12
-27 -26z"/>
<path d="M4369 3028 c-24 -24 -62 -51 -84 -62 -22 -10 -35 -20 -28 -23 19 -7
65 22 118 76 60 62 55 68 -6 9z"/>
<path d="M2720 3056 c0 -2 7 -7 16 -10 8 -3 12 -2 9 4 -6 10 -25 14 -25 6z"/>
<path d="M4300 3040 c-13 -11 -21 -22 -18 -25 2 -3 15 6 28 20 28 30 22 33
-10 5z"/>
<path d="M2975 3030 c-27 -11 49 -11 85 0 21 7 17 8 -20 8 -25 0 -54 -3 -65
-8z"/>
<path d="M4406 2984 c-21 -25 -59 -56 -83 -71 -53 -31 -50 -42 4 -15 47 25
152 133 126 132 -4 -1 -26 -21 -47 -46z"/>
<path d="M4218 2990 c-33 -18 -58 -40 -44 -40 8 0 79 40 91 51 15 15 -7 10
-47 -11z"/>
<path d="M3052 2993 c-18 -2 -30 -8 -28 -12 7 -10 66 -1 66 10 0 5 -1 8 -2 7
-2 0 -18 -3 -36 -5z"/>
<path d="M2815 2950 c3 -5 13 -10 21 -10 8 0 12 5 9 10 -3 6 -13 10 -21 10 -8
0 -12 -4 -9 -10z"/>
<path d="M2995 2930 c4 -6 11 -8 16 -5 14 9 11 15 -7 15 -8 0 -12 -5 -9 -10z"/>
<path d="M3070 2930 c-12 -8 -11 -10 8 -10 12 0 22 5 22 10 0 13 -11 13 -30 0z"/>
<path d="M4094 2911 c-55 -9 -134 -59 -214 -133 -127 -117 -230 -185 -230
-149 0 6 -5 11 -11 11 -6 0 -8 -7 -5 -16 5 -14 1 -16 -23 -11 -22 5 -32 1 -43
-14 -11 -18 -29 -21 -133 -29 -121 -8 -140 -6 -130 11 8 12 -2 12 -25 -1 -12
-7 -32 -5 -66 7 -65 21 -82 35 -57 44 14 6 13 8 -9 8 -33 1 -58 38 -37 53 8 6
10 11 4 14 -44 19 -60 33 -63 52 -2 12 -10 22 -18 22 -17 0 -19 16 -3 26 7 4
-4 12 -25 19 -34 12 -64 15 -138 16 -16 0 -28 4 -28 9 0 6 -5 10 -10 10 -6 0
-10 -7 -8 -16 3 -17 -69 -78 -104 -90 -10 -4 -16 -9 -14 -13 3 -4 -23 -42 -56
-86 -55 -73 -59 -82 -54 -117 11 -65 84 -167 150 -208 22 -13 54 -36 70 -51
55 -47 167 -103 231 -113 145 -24 294 -10 590 56 61 13 60 12 178 122 109 101
172 142 311 203 55 24 105 48 113 55 7 6 16 8 20 4 3 -3 4 -7 2 -9 -2 -2 -20
-15 -40 -29 -20 -15 -67 -42 -105 -61 -100 -48 -190 -112 -264 -187 -36 -36
-77 -73 -92 -83 -46 -29 -133 -57 -210 -67 -40 -6 -102 -16 -138 -22 -36 -7
-133 -13 -217 -13 -138 0 -149 -1 -125 -14 37 -20 215 -16 357 9 61 10 139 23
174 29 86 14 164 53 227 115 104 102 172 154 274 208 96 50 175 103 194 129
27 39 22 159 -10 230 -15 32 -34 61 -43 63 -35 10 -108 14 -147 7z m21 -31
c-3 -5 -12 -10 -19 -10 -27 0 -117 -71 -228 -180 -132 -130 -177 -164 -273
-203 -104 -42 -203 -59 -279 -47 -85 14 -163 36 -190 53 -27 18 -105 134 -131
195 -21 49 -76 102 -106 102 -35 0 -83 -27 -139 -78 -30 -27 -57 -49 -59 -47
-8 9 69 89 117 121 47 32 60 36 98 31 59 -6 84 -24 141 -103 109 -151 139
-166 339 -165 139 1 213 16 314 64 53 25 149 99 205 157 38 40 122 101 155
113 26 9 61 7 55 -3z m133 -27 c2 -7 -2 -13 -10 -13 -7 0 -25 -24 -39 -52 -15
-29 -31 -54 -38 -56 -19 -6 -12 18 19 64 30 43 28 62 -2 27 -25 -30 -88 -140
-88 -154 0 -15 -39 -44 -47 -35 -3 2 10 32 28 65 30 57 34 81 11 67 -5 -3 -26
-41 -46 -83 -52 -109 -51 -108 -70 -111 -16 -3 -15 0 3 37 24 46 25 51 10 51
-5 0 -24 -29 -40 -65 -30 -67 -43 -81 -37 -43 5 35 -20 32 -38 -5 -11 -23 -26
-37 -43 -41 -33 -7 -95 -108 -78 -125 8 -8 6 -11 -6 -11 -10 0 -29 -19 -45
-45 -15 -24 -32 -45 -39 -45 -15 0 -8 19 29 83 33 56 36 72 10 58 -10 -5 -38
-50 -62 -100 -25 -50 -48 -91 -52 -91 -13 0 -9 15 16 71 23 49 26 76 6 64 -5
-3 -23 -37 -41 -75 -17 -39 -38 -70 -45 -70 -18 0 -18 4 6 50 16 31 17 40 7
40 -8 0 -25 -21 -38 -46 -22 -44 -43 -63 -56 -51 -3 4 2 18 11 31 10 15 12 27
6 31 -6 3 -13 -1 -16 -10 -4 -9 -14 -15 -23 -14 -32 3 -39 -1 -51 -30 -12 -30
-40 -50 -40 -29 0 6 7 20 17 30 20 23 12 33 -15 19 -12 -6 -35 -11 -51 -11
-24 0 -36 -7 -50 -31 -12 -19 -21 -27 -26 -19 -4 6 0 19 9 29 23 26 20 31 -18
31 -29 0 -36 -5 -50 -35 -10 -20 -21 -33 -27 -30 -5 4 -2 19 7 36 17 34 9 55
-10 26 -6 -10 -17 -26 -24 -35 -12 -15 -13 -13 -8 16 7 38 -9 43 -26 7 -6 -14
-15 -25 -20 -25 -14 0 -9 34 8 58 18 26 12 41 -10 23 -11 -9 -15 -7 -19 10 -5
19 -8 20 -22 9 -19 -16 -32 -6 -16 14 15 18 -5 34 -22 17 -21 -21 -37 -13 -27
14 9 24 -3 45 -15 25 -11 -18 -26 -10 -25 13 3 35 1 38 -20 27 -16 -8 -20 -8
-20 4 0 8 5 18 10 21 12 7 14 45 2 45 -4 0 -13 -5 -18 -10 -7 -7 -9 16 -6 73
4 78 3 86 -19 106 -12 11 -31 21 -41 21 -27 0 -22 12 19 45 50 41 74 54 99 55
29 0 76 -50 98 -107 22 -55 82 -147 118 -180 26 -25 140 -58 236 -69 78 -8
193 17 299 67 83 39 156 99 307 251 96 97 176 139 255 135 25 -1 46 -7 49 -14z
m24 -48 c4 -16 1 -25 -8 -25 -17 0 -25 15 -18 34 9 24 21 19 26 -9z m-1465
-210 c-10 -20 -13 -22 -18 -7 -8 21 -2 32 16 32 10 0 11 -5 2 -25z m-176 -36
l-10 -24 0 26 c-1 14 2 29 6 33 12 12 14 -9 4 -35z m1529 31 c0 -5 -4 -10 -10
-10 -5 0 -10 5 -10 10 0 6 5 10 10 10 6 0 10 -4 10 -10z m-130 -50 c0 -5 -7
-10 -16 -10 -8 0 -12 5 -9 10 3 6 10 10 16 10 5 0 9 -4 9 -10z m-221 -102
c-12 -23 -24 -37 -26 -31 -5 14 36 87 44 79 2 -2 -6 -24 -18 -48z m-1081 -33
c47 -47 51 -73 5 -39 -36 27 -79 84 -63 84 7 0 33 -20 58 -45z m1057 -55 c-3
-5 -11 -10 -16 -10 -6 0 -7 5 -4 10 3 6 11 10 16 10 6 0 7 -4 4 -10z m-925
-68 c0 -5 10 -13 22 -19 12 -5 17 -12 11 -16 -5 -3 -21 5 -33 18 -13 14 -18
25 -12 25 7 0 12 -4 12 -8z m544 -66 c-3 -9 -10 -16 -15 -16 -6 0 -5 9 1 21
13 24 24 20 14 -5z m-224 -13 c0 -5 -4 -15 -10 -23 -11 -18 -25 -7 -17 15 6
15 27 21 27 8z m110 -8 c0 -8 -7 -15 -16 -15 -14 0 -14 3 -4 15 7 8 14 15 16
15 2 0 4 -7 4 -15z"/>
<path d="M2804 2895 c10 -8 23 -12 29 -8 11 7 -12 23 -33 23 -12 -1 -11 -4 4
-15z"/>
<path d="M2880 2890 c0 -5 5 -10 11 -10 5 0 7 5 4 10 -3 6 -8 10 -11 10 -2 0
-4 -4 -4 -10z"/>
<path d="M4351 2869 c-18 -11 -31 -22 -28 -25 3 -3 23 6 44 20 45 31 33 35
-16 5z"/>
<path d="M3110 2870 c0 -5 11 -10 25 -10 14 0 25 5 25 10 0 6 -11 10 -25 10
-14 0 -25 -4 -25 -10z"/>
<path d="M2764 2844 c-4 -11 -9 -22 -11 -26 -7 -12 12 -9 31 5 16 12 16 14 2
26 -13 11 -17 10 -22 -5z"/>
<path d="M3205 2820 c-3 -5 -2 -10 4 -10 5 0 13 5 16 10 3 6 2 10 -4 10 -5 0
-13 -4 -16 -10z"/>
<path d="M4364 2815 c-10 -8 -14 -15 -8 -15 5 0 19 7 30 15 10 8 14 15 8 15
-5 0 -19 -7 -30 -15z"/>
<path d="M3070 2810 c0 -5 5 -10 10 -10 6 0 10 5 10 10 0 6 -4 10 -10 10 -5 0
-10 -4 -10 -10z"/>
<path d="M3125 2810 c-3 -5 1 -10 9 -10 9 0 16 5 16 10 0 6 -4 10 -9 10 -6 0
-13 -4 -16 -10z"/>
<path d="M2680 2790 c0 -13 11 -13 30 0 12 8 11 10 -7 10 -13 0 -23 -4 -23
-10z"/>
<path d="M4369 2753 c-13 -15 -12 -15 9 -4 23 12 28 21 13 21 -5 0 -15 -7 -22
-17z"/>
<path d="M2660 2749 c0 -5 5 -7 10 -4 6 3 10 8 10 11 0 2 -4 4 -10 4 -5 0 -10
-5 -10 -11z"/>
<path d="M3210 2750 c0 -5 5 -10 10 -10 6 0 10 5 10 10 0 6 -4 10 -10 10 -5 0
-10 -4 -10 -10z"/>
<path d="M3605 2749 c-11 -17 1 -21 15 -4 8 9 8 15 2 15 -6 0 -14 -5 -17 -11z"/>
<path d="M3260 2700 c-13 -8 -12 -10 3 -10 9 0 17 5 17 10 0 12 -1 12 -20 0z"/>
<path d="M3520 2700 c0 -5 7 -7 15 -4 8 4 15 8 15 10 0 2 -7 4 -15 4 -8 0 -15
-4 -15 -10z"/>
<path d="M3130 2690 c0 -5 12 -10 28 -10 21 0 24 2 12 10 -20 13 -40 13 -40 0z"/>
<path d="M3200 2688 c0 -4 7 -8 15 -8 8 0 15 4 15 8 0 5 -7 9 -15 9 -8 0 -15
-4 -15 -9z"/>
<path d="M3435 2678 c-58 -25 -60 -26 -53 -33 8 -8 118 35 118 46 0 13 -8 11
-65 -13z"/>
<path d="M4360 2685 c-7 -8 -8 -15 -2 -15 5 0 15 7 22 15 7 8 8 15 2 15 -5 0
-15 -7 -22 -15z"/>
<path d="M3220 2630 c0 -5 7 -10 15 -10 8 0 15 5 15 10 0 6 -7 10 -15 10 -8 0
-15 -4 -15 -10z"/>
<path d="M4369 2613 c-13 -17 -13 -17 6 -3 11 8 22 16 24 17 2 2 0 3 -6 3 -6
0 -17 -8 -24 -17z"/>
<path d="M3355 2590 c4 -6 11 -8 16 -5 14 9 11 15 -7 15 -8 0 -12 -5 -9 -10z"/>
<path d="M4262 2545 c-12 -13 -48 -38 -81 -55 -66 -33 -133 -74 -170 -105 -52
-43 -160 -145 -153 -145 4 0 45 33 92 73 81 69 140 110 241 166 47 26 109 75
109 85 0 13 -18 4 -38 -19z"/>
<path d="M4320 2520 c-8 -5 -11 -12 -7 -16 4 -4 15 0 24 9 18 18 8 23 -17 7z"/>
<path d="M4292 2435 c-29 -19 -60 -41 -68 -50 -9 -8 -18 -15 -22 -15 -4 -1
-25 -16 -47 -35 -63 -55 -26 -41 51 19 38 29 83 60 100 69 32 16 63 47 47 47
-4 0 -32 -16 -61 -35z"/>
<path d="M4179 2423 c-83 -57 -249 -185 -249 -192 0 -4 -23 -25 -52 -45 -29
-20 -48 -36 -42 -36 14 0 84 48 124 85 27 25 178 140 244 187 6 4 8 9 5 12 -3
3 -16 -2 -30 -11z"/>
<path d="M2625 2370 c3 -5 8 -10 11 -10 2 0 4 5 4 10 0 6 -5 10 -11 10 -5 0
-7 -4 -4 -10z"/>
<path d="M4308 2366 c-15 -8 -37 -24 -49 -35 -13 -12 -26 -21 -31 -21 -4 0 -8
-5 -8 -10 0 -13 33 3 71 34 15 12 35 26 45 33 27 17 5 16 -28 -1z"/>
<path d="M2645 2280 c30 -20 65 -27 65 -12 0 9 -58 32 -81 32 -8 0 0 -9 16
-20z"/>
<path d="M4171 2269 c-18 -11 -31 -22 -28 -25 6 -6 67 29 67 39 0 10 -1 10
-39 -14z"/>
<path d="M4212 2230 c-23 -16 -45 -30 -49 -30 -12 0 -57 -50 -45 -50 5 0 15 7
22 15 7 8 16 15 21 15 5 0 30 16 56 36 59 45 58 44 46 44 -5 0 -29 -13 -51
-30z"/>
<path d="M2600 2242 c0 -26 53 -42 160 -47 l65 -3 -55 10 c-53 9 -116 27 -152
43 -10 4 -18 3 -18 -3z"/>
<path d="M4090 2210 c-8 -5 -12 -12 -9 -15 4 -3 12 1 19 10 14 17 11 19 -10 5z"/>
<path d="M4275 2190 c-3 -5 -2 -10 4 -10 5 0 13 5 16 10 3 6 2 10 -4 10 -5 0
-13 -4 -16 -10z"/>
<path d="M3935 2160 c-21 -16 -42 -30 -46 -30 -5 0 -9 -5 -9 -11 0 -6 12 -3
28 7 47 27 77 52 71 58 -3 4 -23 -7 -44 -24z"/>
<path d="M3734 2165 c-10 -8 -14 -15 -8 -15 5 0 19 7 30 15 10 8 14 15 8 15
-5 0 -19 -7 -30 -15z"/>
<path d="M2655 2160 c3 -5 10 -10 16 -10 5 0 9 5 9 10 0 6 -7 10 -16 10 -8 0
-12 -4 -9 -10z"/>
<path d="M3999 2143 c-13 -15 -12 -15 9 -4 23 12 28 21 13 21 -5 0 -15 -7 -22
-17z"/>
<path d="M2725 2140 c3 -5 11 -10 16 -10 6 0 7 5 4 10 -3 6 -11 10 -16 10 -6
0 -7 -4 -4 -10z"/>
<path d="M2770 2130 c0 -5 19 -10 43 -9 36 1 38 2 17 9 -36 12 -60 12 -60 0z"/>
<path d="M4190 2130 c-8 -5 -12 -11 -9 -14 2 -3 11 -1 19 4 8 5 12 11 9 14 -2
3 -11 1 -19 -4z"/>
<path d="M3930 2095 c-23 -19 -37 -35 -31 -35 12 0 91 69 79 70 -3 0 -25 -16
-48 -35z"/>
<path d="M4037 2094 c-16 -9 -27 -18 -24 -20 7 -8 57 15 57 26 0 12 1 13 -33
-6z"/>
<path d="M2700 2080 c0 -5 5 -10 11 -10 5 0 7 5 4 10 -3 6 -8 10 -11 10 -2 0
-4 -4 -4 -10z"/>
<path d="M3774 2066 c-10 -8 -16 -17 -13 -20 3 -4 17 2 30 13 27 23 13 28 -17
7z"/>
<path d="M2755 2060 c3 -5 8 -10 11 -10 2 0 4 5 4 10 0 6 -5 10 -11 10 -5 0
-7 -4 -4 -10z"/>
<path d="M2870 2050 c0 -5 4 -10 9 -10 6 0 13 5 16 10 3 6 -1 10 -9 10 -9 0
-16 -4 -16 -10z"/>
<path d="M2755 1990 c3 -5 25 -10 48 -9 33 0 38 2 22 9 -28 12 -78 12 -70 0z"/>
<path d="M2900 1981 c0 -5 9 -7 20 -4 11 3 20 7 20 9 0 2 -9 4 -20 4 -11 0
-20 -4 -20 -9z"/>
<path d="M3740 1969 c0 -5 5 -7 10 -4 6 3 10 8 10 11 0 2 -4 4 -10 4 -5 0 -10
-5 -10 -11z"/>
<path d="M2710 1920 c0 -5 5 -10 10 -10 6 0 10 5 10 10 0 6 -4 10 -10 10 -5 0
-10 -4 -10 -10z"/>
<path d="M2845 1910 c-3 -5 1 -10 9 -10 9 0 16 5 16 10 0 6 -4 10 -9 10 -6 0
-13 -4 -16 -10z"/>
<path d="M2900 1910 c0 -5 5 -10 10 -10 6 0 10 5 10 10 0 6 -4 10 -10 10 -5 0
-10 -4 -10 -10z"/>
<path d="M2770 1842 c25 -16 80 -25 80 -13 0 6 -6 11 -14 11 -7 0 -29 3 -47 6
-24 4 -29 2 -19 -4z"/>
<path d="M2935 1843 c-43 -6 -56 -23 -18 -23 37 0 63 9 63 21 0 5 -3 8 -7 8
-5 -1 -21 -4 -38 -6z"/>
<path d="M2820 1760 c0 -6 7 -10 15 -10 8 0 15 2 15 4 0 2 -7 6 -15 10 -8 3
-15 1 -15 -4z"/>
<path d="M2975 1610 c-3 -5 3 -10 15 -10 12 0 18 5 15 10 -3 6 -10 10 -15 10
-5 0 -12 -4 -15 -10z"/>
<path d="M4480 3592 c0 -14 87 -164 125 -217 59 -81 62 -67 4 18 -31 45 -48
79 -45 91 3 12 -2 20 -15 23 -11 3 -18 11 -15 19 3 7 -2 18 -10 25 -9 7 -11
15 -5 18 5 4 -1 11 -15 18 -13 6 -24 8 -24 5z"/>
<path d="M4680 3580 c23 -43 136 -153 180 -175 102 -52 329 -50 544 3 66 17
127 28 135 25 9 -3 30 -11 46 -18 78 -34 112 -38 199 -26 47 6 104 20 128 30
24 10 60 22 80 25 31 6 37 4 32 -9 -3 -8 -17 -15 -30 -15 -12 0 -27 -6 -31
-14 -16 -29 -187 -76 -274 -76 -5 0 -9 -4 -9 -10 0 -15 93 -12 133 5 19 8 56
19 81 25 99 22 223 116 274 208 l23 42 -35 0 c-29 0 -38 -5 -50 -27 -8 -16
-32 -45 -53 -66 -46 -44 -178 -91 -289 -101 -61 -6 -80 -3 -141 19 -39 14 -81
25 -95 25 -13 0 -87 -14 -164 -31 -128 -28 -151 -30 -294 -27 -128 3 -161 6
-190 22 -37 20 -136 116 -165 160 -21 32 -52 37 -35 6z"/>
<path d="M4734 3591 c16 -25 120 -91 176 -111 54 -20 85 -24 185 -25 67 0 140
5 165 12 104 29 200 35 350 20 151 -16 262 -11 330 14 42 15 117 66 124 85 9
23 -119 17 -271 -13 -123 -24 -136 -25 -144 -10 -6 10 -16 14 -26 10 -12 -5
-15 -2 -10 10 4 11 1 17 -7 17 -8 0 -17 -11 -20 -25 -4 -14 -11 -25 -16 -25
-6 0 -10 11 -10 25 0 16 -6 25 -15 25 -8 0 -15 -7 -15 -15 0 -8 -4 -15 -9 -15
-5 0 -11 7 -15 15 -8 23 -23 18 -30 -10 -4 -14 -13 -25 -21 -25 -9 0 -15 10
-15 25 0 32 -14 32 -28 1 -8 -18 -20 -25 -51 -28 -41 -4 -45 0 -42 35 4 30
-19 19 -25 -13 -5 -24 -12 -30 -31 -30 -22 0 -24 3 -18 30 8 39 -6 39 -23 0
-12 -27 -47 -49 -59 -36 -3 3 -1 19 5 35 15 42 -1 39 -27 -4 -11 -19 -28 -35
-36 -35 -16 0 -15 10 2 58 11 26 -16 10 -29 -18 -16 -38 -44 -36 -41 3 2 34
-13 35 -21 2 -4 -14 -12 -25 -19 -25 -22 0 -40 18 -34 34 7 19 -4 21 -21 4 -9
-9 -15 -9 -24 0 -14 14 -192 17 -184 3z"/>
<path d="M5360 3589 c0 -5 5 -7 10 -4 6 3 10 8 10 11 0 2 -4 4 -10 4 -5 0 -10
-5 -10 -11z"/>
<path d="M6207 3593 c-10 -10 -8 -53 2 -53 8 0 41 43 41 55 0 7 -35 6 -43 -2z"/>
<path d="M6258 3550 c-33 -60 -34 -64 -7 -48 11 7 29 30 40 50 22 44 23 48 7
48 -7 0 -25 -23 -40 -50z"/>
<path d="M6321 3543 c-69 -115 -173 -234 -285 -326 -90 -74 -131 -90 -293
-109 -57 -6 -103 -15 -103 -19 0 -20 277 24 335 54 11 5 36 24 56 41 19 17 52
44 73 60 60 47 201 230 250 324 28 55 3 35 -33 -25z"/>
<path d="M6424 3543 c-14 -32 -37 -87 -51 -123 -15 -36 -31 -71 -37 -79 -8
-11 -8 -13 2 -7 7 4 24 30 37 57 14 27 28 49 32 49 3 0 3 -34 0 -75 -9 -118
-70 -224 -122 -211 -21 5 -25 3 -25 -15 0 -15 4 -19 16 -15 9 3 21 6 28 6 6 0
30 17 53 38 46 43 65 102 82 254 6 48 17 101 25 117 20 38 20 61 1 61 -9 0
-26 -24 -41 -57z"/>
<path d="M6520 3591 c0 -16 18 -22 23 -9 9 25 20 -3 34 -84 8 -45 20 -94 28
-108 7 -14 27 -55 43 -91 31 -70 67 -127 157 -249 30 -41 66 -99 80 -127 14
-29 28 -53 32 -53 8 0 34 -25 87 -82 33 -37 73 -36 164 1 80 33 143 79 171
125 10 17 49 66 87 110 141 160 211 272 235 371 14 60 34 117 59 168 l19 38
-31 -3 c-26 -2 -33 -9 -40 -33 -5 -16 -20 -75 -35 -130 -27 -106 -73 -195
-151 -297 -24 -33 -54 -66 -67 -74 -13 -8 -26 -26 -29 -39 -4 -15 -16 -27 -30
-31 -15 -3 -23 -11 -20 -19 6 -14 -29 -70 -56 -92 -12 -9 -17 -8 -24 7 -12 26
-1 50 23 50 14 0 18 5 14 18 -4 18 33 84 61 106 7 6 40 43 72 81 32 39 69 78
81 88 25 20 46 55 58 97 5 18 -1 14 -22 -16 -15 -23 -61 -77 -102 -120 -40
-44 -83 -95 -96 -114 -12 -20 -47 -61 -77 -93 l-54 -57 -61 0 c-75 0 -102 11
-128 53 -10 18 -32 53 -47 79 -16 26 -61 90 -101 142 -149 195 -157 207 -157
242 0 19 -5 34 -10 34 -18 0 -31 49 -20 70 9 16 8 18 -5 13 -11 -4 -18 1 -22
16 -3 11 -13 21 -23 21 -15 0 -16 -6 -9 -50 11 -72 108 -231 220 -364 55 -64
98 -128 143 -211 44 -79 51 -84 136 -86 41 -1 81 0 88 2 8 2 19 -4 25 -14 10
-15 8 -21 -6 -32 -22 -16 -146 -55 -174 -55 -22 0 -138 113 -162 157 -9 16
-36 58 -61 93 -121 173 -196 321 -231 455 -25 99 -26 100 -57 103 -18 2 -32
-1 -32 -7z"/>
<path d="M7147 3593 c-15 -2 -25 -8 -22 -12 6 -10 53 -2 61 10 3 5 2 8 -3 8
-4 -1 -20 -4 -36 -6z"/>
<path d="M7350 3590 c0 -5 6 -10 14 -10 8 0 18 5 21 10 3 6 -3 10 -14 10 -12
0 -21 -4 -21 -10z"/>
<path d="M7407 3559 c-32 -23 -56 -43 -53 -46 7 -7 116 66 116 78 0 12 3 14
-63 -32z"/>
<path d="M7606 3592 c-2 -4 -9 -45 -16 -92 -6 -47 -12 -96 -14 -110 -4 -23 -3
-24 10 -5 8 10 14 39 14 64 0 25 7 70 14 99 8 28 10 52 6 52 -5 0 -11 -3 -14
-8z"/>
<path d="M7944 3523 c18 -43 36 -90 40 -106 24 -98 105 -226 210 -333 97 -98
122 -107 229 -80 77 20 192 71 250 110 21 14 40 26 44 26 19 0 127 94 162 140
38 50 161 288 161 310 0 30 -22 -2 -70 -101 -82 -169 -131 -237 -203 -286 -59
-40 -96 -55 -82 -33 3 6 -1 10 -9 10 -10 0 -16 -9 -16 -24 0 -21 -12 -30 -72
-60 -122 -58 -150 -67 -225 -73 l-72 -6 -84 88 c-108 112 -174 221 -217 360
-23 75 -52 135 -65 135 -9 0 -3 -25 19 -77z"/>
<path d="M8022 3573 c7 -16 18 -35 25 -44 7 -8 13 -20 13 -26 0 -6 7 -16 15
-23 22 -18 85 -116 125 -194 44 -85 80 -126 112 -126 14 0 51 -9 83 -20 32
-11 66 -20 76 -20 10 0 20 -8 22 -17 4 -14 5 -12 6 5 1 13 7 22 17 22 9 0 33
13 53 29 20 15 46 31 59 35 12 4 22 11 22 16 0 5 -32 -7 -70 -26 -69 -33 -151
-46 -164 -25 -3 5 -18 12 -33 16 -15 3 -31 12 -35 18 -6 9 -8 9 -8 0 0 -22
-25 -14 -59 19 -17 17 -30 37 -27 45 3 7 1 13 -3 13 -15 0 -51 69 -51 97 0 14
-11 40 -24 57 -13 17 -40 64 -60 104 -35 69 -38 72 -71 72 -34 0 -34 -1 -23
-27z"/>
<path d="M8598 3588 c-16 -5 -28 -14 -28 -19 0 -5 14 -3 30 6 17 9 30 18 30
20 0 3 -1 5 -2 4 -2 0 -15 -5 -30 -11z"/>
<path d="M8697 3555 c-61 -56 -48 -59 18 -4 64 52 61 49 44 49 -8 -1 -36 -21
-62 -45z"/>
<path d="M9875 3536 c39 -35 97 -89 130 -121 136 -132 270 -179 366 -130 47
24 180 137 213 180 15 19 38 45 50 58 13 12 31 34 41 50 17 26 17 27 -3 27
-11 0 -32 -16 -47 -36 -19 -25 -33 -34 -46 -31 -16 4 -18 1 -13 -18 6 -26 4
-28 -94 -115 -68 -60 -132 -90 -203 -97 -65 -7 -143 33 -238 122 -151 140
-193 175 -209 175 -9 0 13 -27 53 -64z"/>
<path d="M10070 3500 c118 -111 153 -127 224 -103 50 17 51 17 64 -9 11 -22
12 -22 9 6 -3 40 26 58 48 31 16 -19 16 -19 10 8 -5 24 3 36 62 95 68 67 68
67 39 70 -22 3 -38 -5 -70 -35 -22 -22 -53 -47 -68 -56 -16 -10 -28 -22 -28
-28 0 -6 15 0 34 15 39 29 58 20 23 -11 -39 -34 -79 -55 -131 -69 -44 -12 -54
-11 -87 4 -40 18 -143 112 -172 156 -11 15 -26 26 -40 26 -17 -1 0 -21 83
-100z m400 35 c-7 -8 -17 -15 -22 -15 -6 0 -5 7 2 15 7 8 17 15 22 15 6 0 5
-7 -2 -15z"/>
<path d="M10290 3590 c-12 -8 -12 -10 5 -10 11 0 27 5 35 10 12 8 12 10 -5 10
-11 0 -27 -5 -35 -10z"/>
<path d="M14690 3574 c123 -47 147 -50 474 -59 223 -5 276 2 386 54 l65 31
-57 -2 c-39 -2 -58 -7 -58 -15 0 -18 -94 -43 -162 -43 -58 0 -58 0 -58 30 0
17 -4 30 -10 30 -5 0 -10 -13 -10 -29 0 -39 -18 -41 -215 -30 -215 12 -259 17
-308 40 -23 10 -58 18 -77 18 -32 0 -30 -2 30 -25z"/>
<path d="M14950 3585 c0 -8 5 -15 10 -15 6 0 10 7 10 15 0 8 -4 15 -10 15 -5
0 -10 -7 -10 -15z"/>
<path d="M15020 3591 c0 -6 5 -13 10 -16 6 -3 10 1 10 9 0 9 -4 16 -10 16 -5
0 -10 -4 -10 -9z"/>
<path d="M15091 3584 c0 -11 3 -14 6 -6 3 7 2 16 -1 19 -3 4 -6 -2 -5 -13z"/>
<path d="M15200 3580 c0 -11 5 -20 10 -20 6 0 10 9 10 20 0 11 -4 20 -10 20
-5 0 -10 -9 -10 -20z"/>
<path d="M15326 3585 c4 -8 8 -15 10 -15 2 0 4 7 4 15 0 8 -4 15 -10 15 -5 0
-7 -7 -4 -15z"/>
<path d="M15390 3585 c0 -8 5 -15 10 -15 6 0 10 7 10 15 0 8 -4 15 -10 15 -5
0 -10 -7 -10 -15z"/>
<path d="M10215 3580 c-3 -5 1 -10 10 -10 9 0 13 5 10 10 -3 6 -8 10 -10 10
-2 0 -7 -4 -10 -10z"/>
<path d="M15141 3574 c0 -11 3 -14 6 -6 3 7 2 16 -1 19 -3 4 -6 -2 -5 -13z"/>
<path d="M7450 3526 c-70 -47 -106 -81 -93 -89 4 -3 29 14 54 36 25 23 62 51
82 62 20 11 37 23 37 27 0 14 -13 8 -80 -36z"/>
<path d="M7251 3540 c-24 -11 -49 -20 -57 -20 -8 0 -14 -4 -14 -10 0 -11 97
23 114 40 14 14 7 12 -43 -10z"/>
<path d="M8759 3514 c-38 -39 -89 -74 -176 -122 -37 -21 -23 -23 30 -5 35 11
71 37 125 88 42 40 74 76 71 79 -3 3 -25 -15 -50 -40z"/>
<path d="M8465 3540 c-3 -5 3 -10 14 -10 11 0 23 5 26 10 3 6 -3 10 -14 10
-11 0 -23 -4 -26 -10z"/>
<path d="M10344 3540 c-5 -5 -27 -19 -49 -29 -22 -11 -34 -20 -27 -21 17 0 89
37 97 50 8 13 -8 13 -21 0z"/>
<path d="M6272 3387 c-111 -166 -156 -220 -217 -260 -44 -29 -158 -71 -223
-82 -23 -4 -42 -11 -42 -16 0 -25 212 37 282 82 74 48 204 213 250 317 12 26
30 59 41 74 11 15 19 30 16 32 -2 3 -50 -64 -107 -147z"/>
<path d="M8568 3476 c-59 -22 -81 -36 -57 -36 17 0 119 47 119 55 0 3 -1 4 -2
4 -2 -1 -29 -11 -60 -23z"/>
<path d="M6126 3452 l-29 -37 34 32 c18 18 31 35 28 37 -3 3 -18 -12 -33 -32z"/>
<path d="M7472 3460 c-41 -37 -35 -38 15 -4 48 32 49 34 32 34 -8 0 -29 -13
-47 -30z"/>
<path d="M6170 3442 c-19 -22 -51 -60 -71 -84 -42 -50 -160 -133 -222 -156
-33 -13 -82 -16 -227 -16 -131 1 -167 -2 -125 -7 99 -13 301 -12 342 2 60 19
171 89 229 144 40 37 115 136 112 147 -2 5 -19 -8 -38 -30z"/>
<path d="M10323 3460 c-13 -5 -23 -12 -23 -15 0 -9 16 -5 36 10 22 16 19 18
-13 5z"/>
<path d="M8745 3410 c-3 -5 -1 -10 4 -10 6 0 11 5 11 10 0 6 -2 10 -4 10 -3 0
-8 -4 -11 -10z"/>
<path d="M7385 3390 c-3 -5 -2 -10 4 -10 5 0 13 5 16 10 3 6 2 10 -4 10 -5 0
-13 -4 -16 -10z"/>
<path d="M7479 3380 l-24 -20 33 11 c35 12 52 29 29 29 -8 0 -25 -9 -38 -20z"/>
<path d="M7225 3364 c-46 -23 -48 -24 -16 -19 36 5 107 45 81 44 -8 0 -37 -11
-65 -25z"/>
<path d="M8668 3362 c-16 -9 -28 -20 -28 -25 0 -9 56 19 65 33 9 15 -6 12 -37
-8z"/>
<path d="M5463 3351 c-139 -11 -117 -26 37 -26 125 0 156 4 133 18 -18 11 -93
14 -170 8z"/>
<path d="M6013 3345 c-42 -48 -248 -81 -440 -71 -66 4 -113 2 -113 -3 0 -18
170 -24 315 -11 137 12 147 14 200 47 30 19 55 39 55 44 0 12 -3 11 -17 -6z"/>
<path d="M7425 3340 c-3 -6 1 -7 9 -4 18 7 21 14 7 14 -6 0 -13 -4 -16 -10z"/>
<path d="M8460 3340 c0 -5 7 -7 15 -4 8 4 15 8 15 10 0 2 -7 4 -15 4 -8 0 -15
-4 -15 -10z"/>
<path d="M8522 3278 c-46 -22 -82 -41 -80 -44 7 -6 132 46 158 67 38 28 14 22
-78 -23z"/>
<path d="M8680 3292 c-19 -16 -48 -36 -65 -45 -26 -14 -27 -16 -8 -17 18 0
123 72 123 85 0 11 -18 3 -50 -23z"/>
<path d="M4660 3303 c0 -5 18 -28 40 -53 21 -25 67 -92 102 -149 37 -62 94
-138 139 -185 72 -76 101 -96 231 -158 9 -4 61 -3 115 2 54 5 152 6 218 3
l120 -6 119 47 c65 25 130 54 145 64 14 10 69 40 121 67 128 65 162 84 183
103 21 19 22 33 2 26 -8 -4 -15 -1 -15 6 0 6 -4 9 -9 6 -5 -3 -7 -14 -4 -25 3
-14 -6 -23 -42 -40 -26 -12 -55 -19 -66 -16 -13 4 -19 2 -19 -9 0 -10 -6 -13
-15 -10 -8 4 -15 1 -15 -5 0 -6 -7 -11 -15 -11 -8 0 -15 -3 -15 -7 0 -10 -49
-33 -67 -33 -8 0 -16 -7 -19 -15 -4 -8 -14 -15 -24 -15 -10 0 -21 -7 -24 -16
-3 -9 -13 -14 -20 -11 -8 3 -20 -1 -26 -9 -7 -8 -21 -14 -31 -14 -10 0 -21 -4
-24 -10 -3 -5 -15 -10 -26 -10 -10 0 -19 -4 -19 -9 0 -5 -8 -12 -17 -15 -18
-7 -121 -20 -138 -17 -5 1 -95 3 -200 4 -186 3 -191 3 -249 31 -81 40 -186
147 -260 266 -51 83 -161 230 -172 230 -2 0 -4 -3 -4 -7z"/>
<path d="M7245 3290 c-3 -5 -2 -10 4 -10 5 0 13 5 16 10 3 6 2 10 -4 10 -5 0
-13 -4 -16 -10z"/>
<path d="M7345 3280 c-3 -6 1 -7 9 -4 18 7 21 14 7 14 -6 0 -13 -4 -16 -10z"/>
<path d="M5355 3260 c-3 -5 3 -10 14 -10 12 0 21 5 21 10 0 6 -6 10 -14 10 -8
0 -18 -4 -21 -10z"/>
<path d="M7396 3239 c-21 -16 -36 -29 -32 -29 8 0 86 51 86 56 0 9 -18 0 -54
-27z"/>
<path d="M7148 3243 c7 -3 16 -2 19 1 4 3 -2 6 -13 5 -11 0 -14 -3 -6 -6z"/>
<path d="M8301 3246 c2 -2 18 -6 34 -10 22 -5 26 -4 15 4 -14 9 -59 15 -49 6z"/>
<path d="M8684 3235 c-10 -8 -14 -15 -8 -15 5 0 19 7 30 15 10 8 14 15 8 15
-5 0 -19 -7 -30 -15z"/>
<path d="M6187 3164 c-69 -74 -113 -107 -207 -155 -36 -18 -59 -34 -53 -36 25
-9 179 81 241 141 57 54 103 116 86 116 -3 0 -33 -30 -67 -66z"/>
<path d="M8529 3204 c-12 -15 -11 -16 11 -9 35 10 49 25 23 25 -11 0 -27 -7
-34 -16z"/>
<path d="M5370 3170 c0 -5 5 -10 10 -10 6 0 10 5 10 10 0 6 -4 10 -10 10 -5 0
-10 -4 -10 -10z"/>
<path d="M8606 3146 c3 -9 11 -16 16 -16 13 0 5 23 -10 28 -7 2 -10 -2 -6 -12z"/>
<path d="M7246 3124 c-40 -35 -28 -38 14 -3 19 16 30 29 25 29 -6 0 -23 -12
-39 -26z"/>
<path d="M6220 3099 c0 -18 2 -19 15 -9 15 12 12 30 -6 30 -5 0 -9 -10 -9 -21z"/>
<path d="M5455 3101 c-3 -5 -1 -12 5 -16 5 -3 10 1 10 9 0 18 -6 21 -15 7z"/>
<path d="M7215 3020 c-3 -5 -1 -10 4 -10 6 0 11 5 11 10 0 6 -2 10 -4 10 -3 0
-8 -4 -11 -10z"/>
<path d="M5500 3000 c0 -5 14 -10 30 -10 17 0 30 5 30 10 0 6 -13 10 -30 10
-16 0 -30 -4 -30 -10z"/>
<path d="M5815 2960 c3 -5 15 -10 26 -10 11 0 17 5 14 10 -3 6 -15 10 -26 10
-11 0 -17 -4 -14 -10z"/>
<path d="M7170 2855 c0 -8 5 -15 10 -15 6 0 10 7 10 15 0 8 -4 15 -10 15 -5 0
-10 -7 -10 -15z"/>
<path d="M5615 2830 c-3 -5 1 -10 9 -10 9 0 16 5 16 10 0 6 -4 10 -9 10 -6 0
-13 -4 -16 -10z"/>
<path d="M1250 2733 c0 -5 7 -18 15 -29 15 -18 15 -18 13 5 -3 23 -28 44 -28
24z"/>
<path d="M1326 2715 c4 -8 10 -15 15 -15 5 0 9 7 9 15 0 8 -7 15 -15 15 -9 0
-12 -6 -9 -15z"/>
<path d="M2220 2705 c-6 -8 -10 -20 -8 -26 2 -6 12 0 21 15 18 27 8 37 -13 11z"/>
<path d="M1740 2666 c0 -8 5 -18 10 -21 6 -3 10 1 10 9 0 8 -4 18 -10 21 -5 3
-10 -1 -10 -9z"/>
<path d="M1852 2650 c0 -14 2 -19 5 -12 2 6 2 18 0 25 -3 6 -5 1 -5 -13z"/>
<path d="M2163 2638 c-20 -26 -26 -41 -15 -34 12 7 36 46 29 46 -3 0 -9 -6
-14 -12z"/>
<path d="M2377 2643 c-4 -3 -7 -11 -7 -17 0 -6 5 -5 12 2 6 6 9 14 7 17 -3 3
-9 2 -12 -2z"/>
<path d="M1253 2568 c-20 -37 -62 -147 -99 -256 -13 -40 -34 -92 -46 -115 -12
-23 -25 -62 -29 -87 -4 -25 -26 -89 -49 -143 -22 -54 -40 -107 -38 -119 3 -22
175 403 212 527 22 73 52 163 71 208 12 30 -4 19 -22 -15z"/>
<path d="M2344 2576 c-3 -14 -4 -33 -1 -43 4 -17 4 -17 12 2 5 11 15 24 22 28
11 7 11 12 2 23 -17 20 -28 17 -35 -10z"/>
<path d="M2100 2575 c-7 -8 -8 -15 -2 -15 5 0 15 7 22 15 7 8 8 15 2 15 -5 0
-15 -7 -22 -15z"/>
<path d="M1107 2498 c-14 -29 -32 -75 -41 -103 -8 -27 -22 -72 -31 -99 -18
-60 -20 -85 -4 -69 9 9 50 120 108 296 16 46 -5 30 -32 -25z"/>
<path d="M2023 2520 c-13 -5 -23 -16 -23 -24 0 -9 -29 -39 -65 -67 -36 -29
-67 -59 -70 -68 -3 -9 -24 -40 -48 -69 -24 -29 -54 -72 -66 -95 -38 -70 -81
-196 -81 -235 1 -47 15 -25 24 37 8 51 34 101 53 101 16 0 17 17 2 22 -14 5 0
38 17 38 8 0 14 10 14 25 0 18 5 25 20 25 15 0 20 7 20 25 0 16 6 25 15 25 20
0 19 -4 -9 -54 -43 -78 -102 -266 -82 -266 3 0 15 33 27 73 30 103 91 224 145
285 52 59 43 69 -15 17 -43 -39 -51 -42 -51 -19 0 9 9 18 20 21 11 3 20 13 20
23 0 10 17 33 37 52 56 50 123 121 123 130 0 9 2 9 -27 -2z"/>
<path d="M2135 2420 c4 -6 11 -8 16 -5 14 9 11 15 -7 15 -8 0 -12 -5 -9 -10z"/>
<path d="M2055 2361 c-16 -16 -59 -55 -94 -87 -50 -46 -71 -75 -98 -134 -19
-41 -38 -82 -42 -90 -5 -9 -9 -34 -9 -56 0 -21 -5 -50 -10 -64 -16 -42 -25
-167 -13 -174 7 -5 11 5 11 26 0 18 7 65 16 103 8 39 19 94 24 123 19 110 82
212 183 297 55 47 87 85 70 85 -4 0 -21 -13 -38 -29z"/>
<path d="M2075 2300 c-3 -5 -2 -10 4 -10 5 0 13 5 16 10 3 6 2 10 -4 10 -5 0
-13 -4 -16 -10z"/>
<path d="M2360 2300 l-25 -6 24 -6 c26 -7 20 -28 -8 -28 -23 0 -33 -43 -19
-79 l10 -26 9 24 c6 14 7 31 4 39 -9 24 6 34 26 16 18 -17 19 -16 19 24 0 46
-5 51 -40 42z"/>
<path d="M1660 2260 c0 -5 5 -10 10 -10 6 0 10 5 10 10 0 6 -4 10 -10 10 -5 0
-10 -4 -10 -10z"/>
<path d="M2030 2259 c0 -5 5 -7 10 -4 6 3 10 8 10 11 0 2 -4 4 -10 4 -5 0 -10
-5 -10 -11z"/>
<path d="M1655 2175 c-15 -32 -29 -72 -31 -89 -3 -17 -15 -59 -26 -94 -11 -35
-17 -66 -14 -69 3 -4 7 -4 9 -2 11 13 50 131 57 169 4 25 16 64 25 88 27 66 9
63 -20 -3z"/>
<path d="M1985 2219 c-11 -17 1 -21 15 -4 8 9 8 15 2 15 -6 0 -14 -5 -17 -11z"/>
<path d="M1941 2172 c-21 -30 -28 -62 -13 -62 8 0 44 81 38 87 -2 2 -13 -9
-25 -25z"/>
<path d="M2300 2155 c0 -19 5 -35 10 -35 6 0 10 16 10 35 0 19 -4 35 -10 35
-5 0 -10 -16 -10 -35z"/>
<path d="M2370 2169 c0 -11 5 -17 10 -14 6 3 10 13 10 21 0 8 -4 14 -10 14 -5
0 -10 -9 -10 -21z"/>
<path d="M995 2140 c-3 -5 -1 -10 4 -10 6 0 11 5 11 10 0 6 -2 10 -4 10 -3 0
-8 -4 -11 -10z"/>
<path d="M2000 2134 c0 -8 5 -12 10 -9 6 3 10 10 10 16 0 5 -4 9 -10 9 -5 0
-10 -7 -10 -16z"/>
<path d="M536 2058 c-18 -43 -19 -48 -7 -48 12 0 34 56 28 72 -3 7 -12 -3 -21
-24z"/>
<path d="M1330 2059 c0 -30 -20 -118 -60 -259 -23 -81 -50 -200 -50 -219 0
-41 20 16 40 114 12 61 29 125 36 144 26 63 64 218 58 235 -10 27 -24 18 -24
-15z"/>
<path d="M1897 2077 c-11 -29 -9 -43 4 -30 6 6 9 19 7 29 -3 18 -4 18 -11 1z"/>
<path d="M1966 2075 c-12 -31 -19 -145 -9 -145 6 0 13 28 16 63 3 34 8 70 12
80 4 9 3 17 -3 17 -5 0 -12 -7 -16 -15z"/>
<path d="M598 2070 c-6 -14 -38 -152 -38 -164 0 -4 4 -6 9 -6 18 0 42 85 39
136 -2 27 -7 42 -10 34z"/>
<path d="M667 2027 c-15 -32 -27 -61 -27 -66 0 -5 -9 -28 -20 -52 -21 -48 -25
-79 -10 -79 6 0 10 8 10 18 0 10 9 35 20 57 11 22 20 45 20 53 0 7 9 31 21 53
11 22 19 48 17 57 -3 11 -15 -5 -31 -41z"/>
<path d="M1874 1965 c-6 -36 2 -92 13 -81 10 9 12 116 2 116 -4 0 -11 -16 -15
-35z"/>
<path d="M681 1921 c-12 -38 -21 -75 -21 -83 0 -8 -5 -19 -11 -25 -6 -6 -9
-19 -6 -29 7 -31 55 83 62 149 4 31 5 57 2 57 -3 0 -14 -31 -26 -69z"/>
<path d="M910 1934 c0 -8 5 -12 10 -9 6 4 8 11 5 16 -9 14 -15 11 -15 -7z"/>
<path d="M956 1885 c-3 -8 -1 -15 4 -15 6 0 10 7 10 15 0 8 -2 15 -4 15 -2 0
-6 -7 -10 -15z"/>
<path d="M1721 1884 c0 -11 3 -14 6 -6 3 7 2 16 -1 19 -3 4 -6 -2 -5 -13z"/>
<path d="M900 1880 c0 -5 5 -10 10 -10 6 0 10 5 10 10 0 6 -4 10 -10 10 -5 0
-10 -4 -10 -10z"/>
<path d="M736 1853 c-3 -3 -6 -14 -6 -23 0 -10 -16 -38 -35 -64 -20 -25 -32
-46 -27 -46 6 0 12 7 16 15 3 8 12 15 20 15 17 0 33 26 46 71 8 27 0 46 -14
32z"/>
<path d="M1440 1809 c-6 -24 -20 -77 -31 -117 -21 -78 -24 -112 -10 -97 11 13
65 245 58 252 -3 3 -11 -15 -17 -38z"/>
<path d="M1710 1816 c-12 -34 -13 -73 -1 -80 8 -5 22 93 14 103 -1 2 -7 -8
-13 -23z"/>
<path d="M1640 1820 c0 -5 5 -10 10 -10 6 0 10 5 10 10 0 6 -4 10 -10 10 -5 0
-10 -4 -10 -10z"/>
<path d="M1537 1810 c-21 -64 -48 -233 -35 -220 9 9 49 211 45 223 -3 8 -6 7
-10 -3z"/>
<path d="M960 1790 c0 -11 5 -20 10 -20 6 0 10 9 10 20 0 11 -4 20 -10 20 -5
0 -10 -9 -10 -20z"/>
<path d="M846 1791 c-4 -7 -5 -15 -2 -18 9 -9 19 4 14 18 -4 11 -6 11 -12 0z"/>
<path d="M901 1777 c-16 -41 -13 -57 5 -24 8 16 13 34 11 40 -3 7 -10 -1 -16
-16z"/>
<path d="M1628 1754 c-5 -4 -8 -16 -8 -28 0 -14 3 -17 11 -9 6 6 9 19 7 28 -1
9 -6 13 -10 9z"/>
<path d="M912 1665 c-36 -73 -36 -75 -22 -75 6 0 18 17 27 38 8 20 20 47 26
59 5 11 8 26 6 32 -3 7 -19 -18 -37 -54z"/>
<path d="M1360 1679 c0 -5 5 -7 10 -4 6 3 10 8 10 11 0 2 -4 4 -10 4 -5 0 -10
-5 -10 -11z"/>
<path d="M770 1670 c0 -5 5 -10 10 -10 6 0 10 5 10 10 0 6 -4 10 -10 10 -5 0
-10 -4 -10 -10z"/>
<path d="M832 1645 c-17 -36 -15 -41 8 -20 20 18 27 45 12 45 -5 0 -14 -11
-20 -25z"/>
<path d="M1624 1641 c3 -18 6 -40 6 -47 0 -8 4 -14 9 -14 12 0 2 71 -12 85 -6
7 -8 -1 -3 -24z"/>
<path d="M1701 1654 c0 -11 3 -14 6 -6 3 7 2 16 -1 19 -3 4 -6 -2 -5 -13z"/>
<path d="M740 1620 c0 -5 5 -10 11 -10 5 0 7 5 4 10 -3 6 -8 10 -11 10 -2 0
-4 -4 -4 -10z"/>
<path d="M1350 1609 c0 -5 5 -7 10 -4 6 3 10 8 10 11 0 2 -4 4 -10 4 -5 0 -10
-5 -10 -11z"/>
<path d="M1510 1541 c0 -16 5 -33 10 -36 6 -4 10 6 10 24 0 16 -4 33 -10 36
-6 4 -10 -6 -10 -24z"/>
<path d="M870 1549 c0 -5 5 -7 10 -4 6 3 10 8 10 11 0 2 -4 4 -10 4 -5 0 -10
-5 -10 -11z"/>
<path d="M1384 1515 c-5 -31 1 -74 10 -64 2 2 6 25 9 52 8 54 -9 65 -19 12z"/>
<path d="M1130 1514 c0 -8 5 -12 10 -9 6 4 8 11 5 16 -9 14 -15 11 -15 -7z"/>
<path d="M1216 1503 c-4 -18 -3 -40 2 -49 14 -25 21 -4 13 41 l-7 40 -8 -32z"/>
<path d="M1720 1503 c0 -5 5 -15 10 -23 8 -12 10 -11 10 8 0 12 -4 22 -10 22
-5 0 -10 -3 -10 -7z"/>
<path d="M1120 1471 c0 -6 5 -13 10 -16 6 -3 10 1 10 9 0 9 -4 16 -10 16 -5 0
-10 -4 -10 -9z"/>
<path d="M1300 1460 c0 -5 5 -10 10 -10 6 0 10 5 10 10 0 6 -4 10 -10 10 -5 0
-10 -4 -10 -10z"/>
<path d="M14248 875 c-3 -66 -1 -75 15 -75 14 0 17 9 17 59 0 114 -27 127 -32
16z"/>
<path d="M12973 933 c-17 -6 -16 -40 1 -46 17 -7 26 1 26 24 0 21 -10 28 -27
22z"/>
<path d="M8647 924 c-3 -3 -1 -18 4 -33 6 -15 9 -68 7 -116 -3 -85 -4 -89 -28
-96 -14 -4 29 -7 95 -6 l120 2 3 44 c4 56 -13 76 -22 27 -9 -46 -42 -68 -93
-64 l-38 3 -3 113 c-3 111 -1 118 31 113 5 -1 6 3 2 9 -7 11 -68 14 -78 4z"/>
<path d="M10524 919 c-10 -17 23 -46 37 -32 7 7 9 19 6 27 -7 18 -33 21 -43 5z"/>
<path d="M11243 917 c23 -9 27 -17 27 -50 0 -29 -4 -38 -14 -34 -11 5 -11 0 1
-25 10 -18 13 -44 10 -67 -2 -21 0 -45 5 -54 10 -18 48 -24 48 -7 0 6 -4 10
-10 10 -5 0 -11 50 -12 118 l-3 117 -40 2 c-39 2 -39 1 -12 -10z"/>
<path d="M12153 916 c14 -11 17 -30 17 -120 0 -64 -4 -106 -10 -106 -5 0 -10
-4 -10 -10 0 -13 40 -13 60 0 9 6 11 10 3 10 -9 0 -13 33 -15 117 l-3 118 -30
2 c-27 2 -28 0 -12 -11z"/>
<path d="M7015 908 c11 -6 21 -12 23 -13 2 -2 -6 -40 -18 -85 -22 -88 -23
-141 -2 -148 9 -3 11 3 7 21 -4 16 4 62 20 118 14 50 24 98 21 105 -3 8 -19
14 -38 14 -30 -1 -31 -2 -13 -12z"/>
<path d="M7155 898 c3 -13 -4 -54 -15 -93 -20 -71 -25 -116 -13 -128 6 -7 51
148 60 211 5 28 2 32 -16 32 -17 0 -20 -5 -16 -22z"/>
<path d="M9126 898 c-9 -12 -16 -30 -16 -40 0 -9 -8 -22 -17 -27 -17 -10 -17
-10 0 -11 14 0 17 -10 17 -69 0 -58 -3 -70 -17 -73 -38 -7 5 -13 52 -7 28 3
38 7 23 7 -28 2 -28 3 -28 72 0 66 1 70 23 71 l22 0 -22 9 c-26 10 -32 57 -11
78 9 9 9 12 1 12 -7 0 -19 -10 -27 -22z"/>
<path d="M9170 896 c0 -17 5 -26 16 -26 10 0 14 7 12 22 -5 32 -28 35 -28 4z"/>
<path d="M2358 900 c21 -9 22 -15 22 -118 0 -103 -1 -110 -22 -120 -19 -9 -11
-11 46 -11 38 -1 66 2 62 7 -4 4 -12 8 -17 8 -5 1 -13 2 -19 3 -5 0 -10 26
-10 57 0 52 2 55 22 52 12 -2 28 -14 35 -28 11 -23 13 -19 12 40 -1 36 -3 56
-6 45 -5 -23 -30 -45 -50 -45 -18 0 -18 106 0 113 6 3 -13 5 -43 6 -43 0 -50
-2 -32 -9z"/>
<path d="M2494 898 c18 -7 34 -24 47 -52 l19 -41 0 53 0 52 -47 -1 c-45 -1
-46 -1 -19 -11z"/>
<path d="M2627 897 c-3 -8 -2 -20 3 -27 11 -18 42 -4 38 17 -4 22 -34 29 -41
10z"/>
<path d="M4020 900 c0 -5 9 -10 20 -10 26 0 25 -14 -8 -125 -23 -76 -31 -91
-50 -93 -12 -2 -22 -8 -22 -13 0 -5 46 -9 104 -8 114 1 120 3 136 61 l10 33
-26 -32 c-26 -34 -88 -58 -117 -47 -17 6 -14 43 6 94 6 14 11 30 12 35 5 41
19 86 26 91 22 14 5 24 -41 24 -27 0 -50 -4 -50 -10z"/>
<path d="M4138 903 c7 -3 16 -2 19 1 4 3 -2 6 -13 5 -11 0 -14 -3 -6 -6z"/>
<path d="M4170 905 c0 -3 9 -14 20 -25 11 -11 20 -30 21 -42 0 -22 1 -22 9 -3
5 11 9 32 9 48 1 24 -3 27 -29 27 -16 0 -30 -2 -30 -5z"/>
<path d="M5349 901 c11 -7 9 -27 -13 -117 -30 -124 -30 -124 -15 -124 14 0 41
65 49 120 4 25 11 64 15 88 7 41 7 42 -21 42 -21 0 -25 -3 -15 -9z"/>
<path d="M7286 903 c-11 -11 -6 -23 9 -23 8 0 15 4 15 9 0 13 -16 22 -24 14z"/>
<path d="M9271 899 c0 -9 -10 -27 -21 -41 -15 -19 -16 -28 -7 -37 7 -7 12 -38
12 -70 1 -81 31 -114 70 -75 20 20 11 32 -10 14 -23 -19 -29 -7 -33 65 -4 64
-4 65 22 65 32 0 35 17 4 22 -17 2 -25 12 -29 38 -4 19 -7 28 -8 19z"/>
<path d="M11826 887 c-5 -15 -16 -31 -25 -37 -15 -8 -15 -10 1 -22 13 -9 18
-31 20 -77 3 -69 19 -91 54 -76 18 8 18 9 -2 12 -25 5 -34 29 -34 96 0 44 2
47 25 47 14 0 25 5 25 11 0 6 -6 9 -14 6 -18 -7 -33 10 -38 43 l-4 25 -8 -28z"/>
<path d="M3278 893 c-31 -5 -38 -23 -9 -23 13 0 20 -10 25 -31 14 -72 3 -169
-20 -169 -8 0 -14 -3 -14 -7 0 -5 25 -8 55 -9 30 0 55 3 55 8 0 4 -9 8 -20 8
-19 0 -20 7 -20 115 0 86 -3 115 -12 114 -7 -1 -25 -4 -40 -6z"/>
<path d="M5902 888 c5 -15 27 -18 31 -3 1 5 -6 11 -17 13 -12 3 -17 -1 -14
-10z"/>
<path d="M5238 856 c-6 -14 -17 -26 -25 -26 -16 0 -18 -17 -2 -22 8 -3 8 -14
0 -43 -15 -57 -14 -90 6 -106 15 -12 16 -12 10 5 -9 22 10 125 26 144 13 16
16 61 5 68 -4 3 -13 -6 -20 -20z"/>
<path d="M10664 816 c-19 -19 -34 -42 -34 -52 0 -25 37 -84 52 -84 9 0 9 3 0
12 -17 17 -15 100 4 126 31 45 74 12 74 -59 0 -49 -14 -75 -45 -82 -19 -4 -19
-5 1 -6 35 -2 74 46 74 89 0 30 -6 42 -32 64 -41 34 -53 33 -94 -8z"/>
<path d="M12018 834 c19 -13 22 -24 22 -78 0 -62 11 -86 39 -86 12 0 12 3 3
12 -7 7 -12 39 -12 74 0 54 -3 65 -22 78 -12 9 -29 16 -37 16 -11 0 -8 -5 7
-16z"/>
<path d="M12438 838 c-41 -33 -26 -70 37 -91 23 -8 45 -24 52 -38 10 -20 13
-21 19 -6 10 27 -22 65 -66 77 -46 12 -56 44 -17 60 13 5 16 9 6 9 -8 1 -22
-5 -31 -11z"/>
<path d="M12650 846 c0 -2 9 -6 20 -9 11 -3 18 -1 14 4 -5 9 -34 13 -34 5z"/>
<path d="M13112 834 c-34 -23 -45 -60 -31 -101 11 -36 58 -68 87 -60 12 3 11
5 -5 6 -29 1 -53 27 -53 57 0 22 3 24 55 24 46 0 55 3 55 18 0 10 -7 27 -15
38 -14 18 -14 17 -15 -13 0 -32 -2 -33 -40 -33 -32 0 -40 4 -40 18 0 24 20 49
45 55 20 5 20 5 0 6 -11 0 -31 -6 -43 -15z"/>
<path d="M13308 843 c6 -2 18 -2 25 0 6 3 1 5 -13 5 -14 0 -19 -2 -12 -5z"/>
<path d="M4146 824 c-4 -12 -17 -25 -29 -28 -14 -4 -18 -9 -11 -13 6 -5 14
-21 19 -38 7 -29 8 -28 21 24 14 53 14 97 0 55z"/>
<path d="M4529 823 c-58 -36 -77 -115 -37 -153 12 -11 29 -20 39 -20 21 0 69
48 69 69 0 9 -9 2 -20 -17 -16 -27 -26 -33 -48 -30 -34 4 -38 24 -16 93 14 46
21 55 40 55 26 0 30 -10 13 -27 -14 -14 5 -27 26 -19 20 7 19 31 -1 50 -19 20
-32 20 -65 -1z"/>
<path d="M5033 825 c-35 -15 -73 -71 -73 -108 0 -29 34 -76 47 -63 4 5 2 11
-4 13 -18 7 -16 34 8 98 15 41 25 55 40 55 27 0 33 -23 20 -75 -12 -50 -1 -95
24 -95 18 0 20 17 3 22 -8 3 -6 24 7 76 16 68 14 103 -4 73 -7 -10 -11 -10
-23 2 -12 12 -19 13 -45 2z"/>
<path d="M6404 823 c3 -10 -3 -43 -14 -73 -20 -59 -14 -90 18 -90 14 0 15 2 3
9 -13 8 -12 17 4 64 18 54 15 107 -6 107 -6 0 -8 -8 -5 -17z"/>
<path d="M6695 829 c-25 -12 -65 -69 -65 -93 0 -37 31 -76 60 -76 12 1 11 3
-2 11 -31 18 -16 127 21 156 19 15 14 15 -14 2z"/>
<path d="M6834 806 c-27 -27 -34 -42 -34 -74 0 -23 6 -45 15 -52 13 -11 15 -7
15 29 0 55 23 109 52 121 19 7 20 9 5 9 -11 1 -34 -14 -53 -33z"/>
<path d="M7605 821 c3 -10 -2 -37 -11 -60 -10 -26 -14 -51 -9 -68 7 -27 8 -26
26 22 23 61 25 111 3 119 -11 4 -14 1 -9 -13z"/>
<path d="M7906 814 c3 -16 -2 -49 -10 -73 -19 -52 -20 -74 -4 -69 31 11 50
136 23 158 -13 11 -14 8 -9 -16z"/>
<path d="M8915 815 c-53 -52 -18 -156 52 -155 l28 1 -31 13 c-30 13 -44 33
-44 62 0 10 14 14 54 14 62 0 71 8 55 44 -14 29 -32 35 -27 9 4 -28 -11 -43
-42 -43 -36 0 -43 11 -30 45 8 22 15 26 35 23 14 -3 25 -1 25 3 0 19 -52 8
-75 -16z"/>
<path d="M9568 833 c7 -3 16 -2 19 1 4 3 -2 6 -13 5 -11 0 -14 -3 -6 -6z"/>
<path d="M9700 831 c0 -5 5 -13 10 -16 6 -3 10 -35 10 -70 0 -42 4 -64 13 -68
10 -4 13 13 11 77 -2 74 -4 81 -23 84 -12 2 -21 -1 -21 -7z"/>
<path d="M9805 827 c15 -12 17 -23 13 -75 -7 -67 1 -82 42 -82 22 1 23 2 8 11
-15 8 -18 24 -18 84 l0 75 -32 0 c-29 0 -30 -1 -13 -13z"/>
<path d="M9933 822 c14 -15 17 -40 17 -125 l0 -107 33 1 c17 1 24 3 15 6 -15
4 -17 18 -15 112 2 115 -3 131 -44 131 -21 0 -21 -1 -6 -18z"/>
<path d="M10028 833 c7 -3 16 -2 19 1 4 3 -2 6 -13 5 -11 0 -14 -3 -6 -6z"/>
<path d="M10350 831 c0 -5 6 -11 13 -13 18 -7 16 -126 -3 -138 -11 -7 -2 -10
29 -10 40 0 43 1 26 14 -15 11 -17 22 -12 66 4 29 2 61 -4 71 -10 19 -49 27
-49 10z"/>
<path d="M10443 810 c0 -19 5 -30 14 -30 10 0 13 9 11 27 -4 37 -25 40 -25 3z"/>
<path d="M10525 831 c-3 -5 -1 -12 5 -16 5 -3 10 -37 10 -76 0 -63 2 -69 20
-69 17 0 19 3 10 19 -5 11 -10 49 -10 85 0 51 -3 66 -14 66 -8 0 -17 -4 -21
-9z"/>
<path d="M10840 831 c0 -5 7 -11 15 -15 23 -8 21 -121 -2 -135 -14 -8 -6 -10
32 -10 28 1 42 3 33 6 -15 4 -18 16 -18 61 0 81 -8 102 -36 102 -13 0 -24 -4
-24 -9z"/>
<path d="M10938 810 c2 -17 10 -30 19 -30 20 0 13 54 -8 58 -12 2 -15 -4 -11
-28z"/>
<path d="M11573 829 c15 -9 18 -22 16 -82 -2 -64 0 -72 17 -75 17 -2 19 3 18
70 -1 40 -2 79 -3 86 -1 7 -15 12 -33 12 -28 -1 -30 -2 -15 -11z"/>
<path d="M11685 823 c14 -13 16 -31 13 -84 -3 -66 -3 -68 19 -67 17 2 21 7 18
19 -3 10 -7 43 -9 74 -3 56 -14 74 -44 75 -10 0 -9 -5 3 -17z"/>
<path d="M12512 831 c-10 -6 -10 -10 2 -20 10 -9 16 -9 21 -1 10 16 -7 31 -23
21z"/>
<path d="M12790 834 c0 -3 7 -12 15 -20 21 -22 20 -110 -1 -122 -14 -8 -14
-10 -1 -15 8 -3 25 -3 36 0 17 4 19 8 10 19 -7 9 -9 30 -5 59 10 60 1 85 -30
85 -13 0 -24 -3 -24 -6z"/>
<path d="M12878 832 c7 -5 10 -16 7 -24 -9 -22 10 -31 25 -13 15 18 -2 45 -29
45 -12 0 -13 -2 -3 -8z"/>
<path d="M12960 831 c0 -6 5 -13 10 -16 6 -3 10 -33 10 -66 0 -33 -4 -59 -10
-59 -5 0 -10 -4 -10 -10 0 -5 14 -10 30 -10 17 0 30 5 30 10 0 6 -4 10 -10 10
-6 0 -10 32 -10 75 0 68 -2 75 -20 75 -11 0 -20 -4 -20 -9z"/>
<path d="M13374 834 c-13 -6 -7 -44 7 -44 5 0 9 11 9 25 0 14 -1 25 -2 24 -2
0 -8 -3 -14 -5z"/>
<path d="M4280 821 c0 -5 5 -11 12 -13 8 -3 7 -16 -5 -46 -21 -53 -22 -86 -1
-103 15 -12 16 -11 10 7 -3 11 0 37 9 57 20 48 19 93 -1 101 -21 8 -24 8 -24
-3z"/>
<path d="M4394 819 c-6 -8 -18 -35 -28 -60 -14 -38 -15 -51 -5 -73 7 -14 19
-26 27 -26 11 0 12 3 4 13 -8 9 -7 29 4 71 17 65 16 99 -2 75z"/>
<path d="M4820 821 c0 -5 5 -11 11 -13 8 -3 5 -26 -8 -76 -16 -57 -17 -72 -7
-72 29 0 55 109 38 154 -7 17 -34 22 -34 7z"/>
<path d="M4900 818 c0 -7 5 -20 10 -28 12 -19 35 2 27 24 -7 19 -37 21 -37 4z"/>
<path d="M5430 806 c0 -14 -7 -41 -16 -60 -19 -40 -12 -86 13 -86 12 0 14 3 6
11 -8 8 -6 25 7 61 17 49 17 83 -1 94 -5 3 -9 -6 -9 -20z"/>
<path d="M5551 795 c-36 -41 -41 -90 -13 -125 17 -21 19 -21 52 -7 l35 16 -31
-6 c-41 -7 -50 9 -34 61 20 66 32 86 53 86 16 0 19 -5 13 -31 -4 -22 -2 -29 7
-26 6 2 12 17 12 33 0 25 -4 29 -31 32 -25 2 -37 -4 -63 -33z"/>
<path d="M5711 812 c10 -15 9 -32 -4 -83 -18 -74 -7 -102 18 -43 8 21 18 47
20 58 8 32 -9 81 -29 84 -15 3 -15 1 -5 -16z"/>
<path d="M5788 811 c10 -28 26 -30 30 -3 3 17 -2 22 -17 22 -16 0 -19 -4 -13
-19z"/>
<path d="M5893 817 c3 -9 0 -32 -8 -51 -8 -20 -15 -51 -15 -71 0 -30 3 -35 23
-34 12 0 16 3 10 6 -18 6 -16 38 3 74 18 35 15 80 -5 87 -10 3 -12 0 -8 -11z"/>
<path d="M6010 815 c10 -11 9 -24 -4 -60 -12 -36 -13 -52 -4 -73 l11 -27 8 40
c4 22 12 51 17 64 13 36 3 71 -20 71 -17 0 -18 -3 -8 -15z"/>
<path d="M6096 782 c-10 -29 -14 -61 -10 -80 8 -42 24 -51 24 -15 0 15 6 51
14 80 8 28 11 54 8 57 -13 13 -21 3 -36 -42z"/>
<path d="M6220 820 c13 -8 13 -17 -3 -77 -21 -82 -21 -84 -3 -77 7 3 23 30 35
60 24 62 14 104 -23 104 -17 0 -18 -2 -6 -10z"/>
<path d="M6309 816 c10 -11 9 -26 -3 -67 -30 -101 -12 -125 23 -31 24 63 17
112 -15 112 -13 0 -14 -3 -5 -14z"/>
<path d="M6743 818 c0 -7 -2 -20 -4 -28 -2 -8 3 -15 11 -15 9 0 15 9 15 24 0
25 -21 43 -22 19z"/>
<path d="M6917 803 c2 -16 -3 -50 -11 -76 -17 -56 -3 -60 28 -8 15 26 17 40
10 69 -11 43 -32 55 -27 15z"/>
<path d="M7264 808 c0 -13 -7 -44 -14 -71 -13 -43 -13 -49 4 -65 17 -16 18
-16 12 5 -4 13 -1 35 8 52 19 36 21 101 4 101 -7 0 -13 -10 -14 -22z"/>
<path d="M7387 803 c2 -16 -2 -49 -10 -75 -8 -26 -12 -49 -9 -52 13 -14 22 -3
37 47 13 40 14 58 6 80 -6 15 -14 27 -19 27 -5 0 -7 -12 -5 -27z"/>
<path d="M7480 808 c0 -13 -7 -42 -15 -66 -11 -31 -12 -48 -5 -62 15 -27 32
-25 25 3 -3 12 0 40 7 62 15 42 13 85 -3 85 -5 0 -9 -10 -9 -22z"/>
<path d="M7682 780 c-17 -40 -19 -56 -10 -80 5 -17 17 -30 26 -30 14 0 14 2 3
9 -11 7 -10 18 3 64 9 30 16 62 16 71 0 31 -18 15 -38 -34z"/>
<path d="M7817 766 c-9 -35 -17 -71 -17 -80 0 -33 17 -14 37 42 17 47 19 62 9
80 -11 20 -13 17 -29 -42z"/>
<path d="M7986 765 c-10 -37 -15 -72 -11 -82 6 -15 9 -13 15 12 3 17 12 40 18
52 13 24 16 83 4 83 -4 0 -16 -29 -26 -65z"/>
<path d="M9537 824 c-12 -12 -8 -51 6 -62 7 -6 31 -17 52 -24 28 -9 41 -20 46
-38 l6 -25 8 28 c9 35 -10 57 -62 72 -26 7 -39 17 -43 33 -3 13 -8 20 -13 16z"/>
<path d="M9624 814 c3 -9 6 -18 6 -20 0 -2 5 -4 10 -4 6 0 10 9 10 20 0 12 -7
20 -16 20 -11 0 -14 -5 -10 -16z"/>
<path d="M10167 812 c-23 -25 -22 -94 1 -115 18 -16 72 -40 72 -32 0 3 -11 10
-25 15 -29 11 -45 57 -24 72 10 7 11 11 2 14 -8 4 -10 16 -6 35 6 34 2 36 -20
11z"/>
<path d="M11155 800 c-26 -51 11 -131 59 -129 20 0 20 1 -1 9 -27 11 -37 46
-30 106 5 51 -6 57 -28 14z"/>
<path d="M11386 808 c-38 -54 -3 -139 57 -137 l32 1 -31 9 c-22 6 -34 17 -38
34 -10 40 1 48 54 42 26 -3 50 -3 53 -1 8 8 -13 64 -24 64 -4 0 -6 -6 -4 -12
9 -24 -11 -40 -46 -36 -30 3 -34 6 -32 31 2 33 -1 34 -21 5z"/>
<path d="M11957 823 c-15 -15 -6 -43 13 -43 11 0 20 3 20 8 -1 14 -27 42 -33
35z"/>
<path d="M12602 805 c-29 -64 8 -135 68 -134 22 1 22 2 -6 10 -23 7 -33 16
-37 36 -3 16 -3 31 0 35 2 5 29 8 59 8 53 0 55 1 49 23 -4 12 -13 28 -21 36
-11 12 -13 10 -11 -15 2 -27 -1 -29 -37 -32 -38 -3 -38 -3 -34 27 6 38 -14 42
-30 6z"/>
<path d="M13278 824 c-26 -25 4 -64 63 -83 20 -6 41 -22 47 -34 10 -21 11 -20
11 9 1 38 -10 48 -66 63 -30 8 -43 17 -45 32 -2 12 -6 17 -10 13z"/>
<path d="M2778 809 c-32 -18 -40 -46 -23 -79 15 -28 45 -42 45 -20 0 6 -4 10
-9 10 -14 0 -20 40 -11 66 21 53 78 12 66 -47 -6 -33 8 -39 24 -10 17 32 12
58 -15 75 -28 18 -52 20 -77 5z"/>
<path d="M2889 798 c12 -32 31 -34 31 -4 0 19 -5 26 -20 26 -16 0 -18 -4 -11
-22z"/>
<path d="M4673 798 c-38 -42 -45 -66 -33 -103 12 -36 36 -50 66 -38 16 6 14 8
-11 13 -26 5 -30 10 -28 35 1 17 7 31 13 33 5 2 8 8 5 13 -3 4 1 22 10 39 18
35 7 39 -22 8z"/>
<path d="M4750 801 c0 -11 -4 -23 -10 -26 -5 -3 -10 -11 -10 -17 0 -6 9 -3 20
7 22 20 26 40 10 50 -5 3 -10 -3 -10 -14z"/>
<path d="M10065 750 c0 -69 0 -70 18 -49 9 12 17 32 17 45 0 25 -19 74 -29 74
-3 0 -6 -32 -6 -70z"/>
<path d="M10263 799 c4 -16 0 -23 -16 -27 -20 -5 -20 -6 -1 -13 42 -17 55 0
38 45 -9 24 -27 19 -21 -5z"/>
<path d="M2630 795 c8 -10 11 -37 8 -80 -4 -59 -2 -65 15 -65 17 0 19 5 13 38
-3 20 -6 56 -6 80 0 36 -3 42 -21 42 -18 0 -19 -2 -9 -15z"/>
<path d="M13880 774 c0 -9 5 -14 12 -12 18 6 21 28 4 28 -9 0 -16 -7 -16 -16z"/>
<path d="M11956 734 c-19 -18 -19 -20 -6 -45 6 -10 21 -19 33 -19 16 0 18 3 8
9 -9 6 -12 20 -9 40 5 34 -3 39 -26 15z"/>
<path d="M14251 710 c8 -21 8 -43 1 -70 -10 -39 -9 -40 15 -40 21 0 23 2 13
15 -7 8 -11 35 -8 67 2 44 0 53 -14 56 -15 3 -16 0 -7 -28z"/>
<path d="M9530 701 c0 -17 5 -31 10 -31 6 0 10 11 10 24 0 14 -4 28 -10 31 -6
4 -10 -7 -10 -24z"/>
<path d="M12420 706 c0 -17 7 -25 24 -28 l24 -5 -21 29 c-25 34 -27 34 -27 4z"/>
<path d="M13277 724 c-16 -16 -7 -44 14 -44 16 0 19 3 12 13 -6 6 -12 18 -14
25 -3 7 -8 10 -12 6z"/>
<path d="M5627 713 c-4 -3 -7 -11 -7 -17 0 -6 5 -5 12 2 6 6 9 14 7 17 -3 3
-9 2 -12 -2z"/>
<path d="M13464 705 c-7 -17 4 -37 17 -30 5 4 9 -6 10 -22 l1 -28 10 32 c6 18
8 39 5 47 -8 20 -36 21 -43 1z"/>
<path d="M14427 714 c-15 -15 -7 -45 11 -42 9 2 17 12 17 22 0 20 -16 31 -28
20z"/>
<path d="M8114 695 c-4 -9 -2 -21 4 -27 15 -15 44 -1 40 19 -4 23 -36 29 -44
8z"/>
<path d="M2743 669 c3 -20 1 -41 -5 -47 -8 -8 -7 -16 2 -27 18 -22 26 -19 25
13 0 25 3 27 49 30 42 3 53 0 68 -20 17 -22 18 -23 18 -2 0 34 -31 54 -85 54
-33 0 -52 5 -62 18 -13 15 -14 13 -10 -19z"/>
<path d="M3470 685 c-10 -12 -10 -18 0 -31 12 -13 15 -13 28 0 15 15 10 46 -6
46 -5 0 -15 -7 -22 -15z"/>
<path d="M2986 675 c-3 -9 1 -18 10 -22 19 -7 39 11 30 26 -10 16 -33 13 -40
-4z"/>
<path d="M12480 670 c0 -5 4 -10 9 -10 6 0 13 5 16 10 3 6 -1 10 -9 10 -9 0
-16 -4 -16 -10z"/>
<path d="M13333 673 c9 -2 23 -2 30 0 6 3 -1 5 -18 5 -16 0 -22 -2 -12 -5z"/>
</g>
</svg>
